<svg width="1920" height="548" viewBox="0 0 1920 548" fill="none" xmlns="http://www.w3.org/2000/svg">
<g style="mix-blend-mode:overlay">
<g style="mix-blend-mode:overlay">
<path d="M420.038 411.217C260.863 385.583 -10.3172 524.187 -45.6788 623.103L1412.42 1230.02L2061.76 318.401C1963.11 292.356 1806.5 227.977 1628.59 281.701C1335.22 370.287 1229.29 175.779 1082 205.809C934.711 235.838 921.761 323.831 828.186 401.455C734.612 479.079 619.006 443.26 420.038 411.217Z" fill="#0C4A6E"/>
</g>
<g style="mix-blend-mode:overlay">
<path d="M674.504 563.22C506.856 592.408 312.136 807.169 327.058 908.37L2048.32 977.909L2225.49 -61.241C2116.52 -52.3488 1932.05 -59.0851 1785.74 48.1221C1544.5 224.9 1344.44 83.6601 1216.11 159.335C1087.78 235.009 1119.06 318.941 1066.73 420.027C1014.4 521.112 884.063 526.736 674.504 563.22Z" fill="#0369A1"/>
</g>
</g>
</svg>
