<svg width="2108" height="420" viewBox="0 0 2108 420" fill="none" xmlns="http://www.w3.org/2000/svg">
<path fill-rule="evenodd" clip-rule="evenodd" d="M0.518191 420C36.6775 321.121 307.155 183.072 466.038 208.659C494.503 213.244 521.262 217.905 546.494 222.3C697.633 248.629 793.999 265.416 874.186 198.897C904.929 173.395 926.969 146.774 947.929 121.457C990.77 69.7121 1029.1 23.4145 1128 3.25048C1186.61 -8.69962 1238.68 14.9076 1298.61 42.0826C1389.28 83.1965 1497.97 132.477 1674.59 79.1427C1826.58 33.2467 1963.02 73.545 2061.06 102.501C2077.79 107.44 2093.39 112.048 2107.76 115.843L1891.11 420H0.518191Z" fill="#D3EEFE"/>
</svg>
