<svg width="1752" height="731" viewBox="0 0 1752 731" fill="none" xmlns="http://www.w3.org/2000/svg">
<path fill-rule="evenodd" clip-rule="evenodd" d="M0.382812 731C61.1369 678.744 132.882 637.044 200.255 625.314C230.236 620.094 258.594 615.506 285.335 611.18C445.511 585.266 547.638 568.744 592.483 482.12C609.676 448.911 617.844 417.552 625.612 387.73C641.489 326.778 655.695 272.241 741.862 221.428C792.929 191.314 855.355 195.55 927.215 200.427C1035.94 207.804 1166.25 216.647 1311.5 110.216C1436.48 18.6288 1589.33 10.2009 1699.15 4.14504C1717.88 3.11221 1735.36 2.14838 1751.24 0.852783L1626.76 731H0.382812Z" fill="#D4F2FE"/>
</svg>
