<svg width="1017" height="720" viewBox="0 0 1017 720" fill="none" xmlns="http://www.w3.org/2000/svg">
<path opacity="0.95" d="M622.234 368.614H474.619C462.956 368.614 453.502 359.158 453.502 347.493V199.848C453.502 188.184 462.956 178.727 474.619 178.727H622.234C633.897 178.727 643.351 188.184 643.351 199.848V347.493C643.351 359.158 633.897 368.614 622.234 368.614Z" fill="url(#paint0_linear_11999_32416)"/>
<path d="M592.375 325.384H504.478V329.726H592.375V325.384Z" fill="#2195F3" fill-opacity="0.62"/>
<path d="M579.926 339.068H516.928V343.411H579.926V339.068Z" fill="#2195F3" fill-opacity="0.62"/>
<path opacity="0.95" d="M909.537 549.627H699.46C685.721 549.627 674.584 538.488 674.584 524.746V269.466C674.584 255.725 685.721 244.585 699.46 244.585H909.537C923.276 244.585 934.414 255.725 934.414 269.466V524.746C934.414 538.488 923.276 549.627 909.537 549.627Z" fill="url(#paint1_linear_11999_32416)"/>
<path d="M813.001 424.541H792.393V428.358H813.001V424.541Z" fill="#4598E6"/>
<path d="M834.069 459.521H714.155V466.912H834.069V459.521Z" fill="#2195F3" fill-opacity="0.59"/>
<path d="M811.124 495.005H714.155V502.396H811.124V495.005Z" fill="#2195F3" fill-opacity="0.59"/>
<path d="M771.002 477.263H714.155V484.654H771.002V477.263Z" fill="#2195F3" fill-opacity="0.59"/>
<path d="M865.441 275.005V278.737H887.416V299.365H891.147V275.005H865.441ZM716.219 299.365H719.951V278.737H741.926V275.005H716.219V299.365ZM887.416 405.802V426.436H865.441V430.169H891.147V405.801H887.416V405.802ZM719.951 405.802H716.219V430.169H741.926V426.436H719.951V405.802Z" fill="#2195F3"/>
<path d="M879.514 502.939C867.396 502.939 857.537 493.078 857.537 480.959C857.537 468.838 867.396 458.978 879.514 458.978C891.631 458.978 901.49 468.838 901.49 480.959C901.49 493.078 891.631 502.939 879.514 502.939ZM879.514 463.233C869.741 463.233 861.791 471.184 861.791 480.959C861.791 490.733 869.741 498.685 879.514 498.685C889.286 498.685 897.236 490.733 897.236 480.959C897.236 471.184 889.286 463.233 879.514 463.233Z" fill="#2195F3"/>
<path d="M878.112 489.61L868.128 479.623L871.136 476.615L878.112 483.593L887.891 473.812L890.899 476.819L878.112 489.61Z" fill="#2195F3"/>
<path d="M892.729 674.361C892.729 683.58 733.078 691.054 536.137 691.054C339.197 691.054 179.545 683.58 179.545 674.361C179.545 665.142 339.197 657.668 536.137 657.668C733.077 657.668 892.729 665.142 892.729 674.361Z" fill="url(#paint2_linear_11999_32416)"/>
<path opacity="0.95" d="M612.409 185.827H484.444V295.643H612.409V185.827Z" fill="url(#paint3_linear_11999_32416)"/>
<path d="M296.378 625.698C307.032 618.204 319.5 565.979 320.244 534.873C320.626 518.939 325.335 512.301 329.489 506.444C333.46 500.845 336.89 496.01 334.892 484.909C331.075 463.692 341.113 454.534 341.215 454.444L340.053 453.119C339.606 453.51 329.152 462.956 333.159 485.221C335.026 495.594 331.948 499.932 328.053 505.424C323.965 511.187 318.877 518.359 318.483 534.831C317.685 568.214 304.937 617.523 295.365 624.256L296.378 625.698Z" fill="url(#paint4_linear_11999_32416)"/>
<path d="M274.046 610.465C273.04 608.185 272 605.827 270.822 603.34C264.736 590.49 259.345 588.374 250.413 584.868C248.23 584.011 245.756 583.04 243.041 581.819C230.246 576.068 232.723 567.592 234.909 560.115C235.215 559.069 235.519 558.026 235.784 556.994C236.909 552.596 234.747 550.389 231.475 547.05C229.042 544.567 226.015 541.478 223.682 536.599C221.128 531.259 222.43 528.396 223.971 526.934C227.218 523.857 234.702 524.424 241.768 528.283C243.963 529.481 245.77 531.374 247.683 533.378C252.188 538.095 257.794 543.967 271.973 544.034C280.058 544.071 284.486 545.188 286.78 547.766C289.383 550.691 288.892 555.071 288.213 561.132C287.978 563.228 287.712 565.605 287.55 568.172C286.586 583.489 295.626 594.539 295.715 594.646C301.116 601.079 307.77 614.425 304.899 622.64C303.695 626.083 301.002 628.25 296.896 629.081C295.26 629.412 293.766 629.569 292.391 629.569C282.474 629.569 278.844 621.343 274.046 610.465ZM240.923 529.83C234.613 526.384 227.846 525.689 225.183 528.214C223.159 530.132 224.113 533.419 225.27 535.838C227.478 540.454 230.269 543.303 232.732 545.817C236.157 549.312 238.861 552.072 237.49 557.431C237.221 558.483 236.911 559.545 236.599 560.61C234.422 568.057 232.367 575.09 243.762 580.212C246.439 581.415 248.891 582.378 251.056 583.228C260.072 586.767 266.029 589.105 272.414 602.585C273.602 605.094 274.647 607.463 275.658 609.754C281.169 622.248 284.496 629.79 296.546 627.353C300 626.655 302.251 624.874 303.235 622.059C305.765 614.819 299.71 602.146 294.363 595.778C293.972 595.309 284.781 584.102 285.791 568.062C285.955 565.452 286.224 563.053 286.461 560.936C287.089 555.328 287.544 551.276 285.463 548.938C283.561 546.801 279.398 545.831 271.964 545.797C257.036 545.727 251.143 539.555 246.408 534.596C244.514 532.611 242.878 530.897 240.923 529.83Z" fill="url(#paint5_linear_11999_32416)"/>
<path d="M296.706 639.743L298.465 639.65C298.379 637.997 296.159 599.023 280.513 587.616C263.349 575.102 257.937 561.654 255.359 552.627C252.322 541.99 236.864 539.148 236.208 539.032L235.901 540.767C236.051 540.794 250.932 543.536 253.665 553.111C256.314 562.388 261.872 576.206 279.475 589.04C294.45 599.958 296.685 639.347 296.706 639.743Z" fill="url(#paint6_linear_11999_32416)"/>
<path d="M293.727 648.508C290.046 646.675 290.18 639.302 290.382 628.142C290.637 614.04 290.986 594.727 283.606 576.962C275.765 558.091 282.758 552.576 289.52 547.241C297.095 541.268 304.249 535.625 290.518 510.156C284.212 498.459 282.21 490.546 284.217 485.256C286.202 480.028 291.768 477.99 297.662 475.832C307.835 472.108 319.365 467.888 317.875 446.353C317.419 439.751 318.195 435.691 320.318 433.576C322.624 431.279 326.022 431.528 329.957 431.816C335.902 432.251 342.636 432.743 348.502 425.088C349.112 423.175 354.721 406.101 361.43 403.177C362.839 402.564 364.219 402.571 365.534 403.2C370.166 405.416 372.853 408.044 373.751 411.234C375.312 416.783 371.249 423.041 366.543 430.288C359.149 441.676 350.767 454.584 359.46 469.944C370.954 490.253 364.882 497.361 356.481 507.198C351.667 512.833 346.212 519.221 342.565 529.639C339.631 538.018 344.635 546.008 349.474 553.734C355.544 563.426 361.821 573.448 348.605 582.144C326.756 596.522 305.177 643.456 304.962 643.928L304.873 644.123L304.703 644.256C300.678 647.411 297.748 648.917 295.541 648.917C294.874 648.918 294.273 648.78 293.727 648.508ZM347.638 580.672C359.414 572.923 354.116 564.464 347.981 554.67C343.157 546.967 337.688 538.236 340.902 529.057C344.658 518.327 350.228 511.806 355.142 506.054C363.374 496.415 368.813 490.048 357.927 470.812C348.708 454.521 357.778 440.552 365.066 429.328C369.539 422.441 373.401 416.493 372.056 411.712C371.303 409.038 368.922 406.774 364.774 404.79C363.93 404.386 363.066 404.387 362.134 404.793C355.909 407.505 350.194 425.581 350.137 425.763L350.091 425.91L349.999 426.032C343.533 434.577 335.935 434.021 329.828 433.574C326.179 433.307 323.298 433.096 321.561 434.825C319.851 436.529 319.22 440.26 319.633 446.232C321.214 469.088 308.491 473.746 298.268 477.488C292.524 479.59 287.563 481.406 285.865 485.881C284.053 490.658 286.024 498.106 292.069 509.32C306.502 536.092 298.424 542.464 290.612 548.626C284.077 553.78 277.904 558.648 285.233 576.286C292.755 594.39 292.401 613.916 292.143 628.173C291.967 637.906 291.828 645.593 294.513 646.931C296.084 647.714 299.09 646.392 303.449 643C305.196 639.202 325.863 595 347.638 580.672Z" fill="url(#paint7_linear_11999_32416)"/>
<path d="M259.239 443.942C270.36 440.129 268.049 461.566 272.748 477.428C277.446 493.289 325.021 484.347 305.052 524.066C285.082 563.784 330.307 537.349 316.798 572.009C303.29 606.669 315.624 643.738 300.94 634.309C286.257 624.88 292.691 581.234 277.42 576.048C262.149 570.861 259.657 564.813 274.777 550.714C289.897 536.615 235.158 522.617 248.666 494.148C262.176 465.678 246.391 448.348 259.239 443.942Z" fill="url(#paint8_linear_11999_32416)"/>
<path d="M295.822 632.032C297.221 626.099 309.163 573.883 298.02 567.57C288.198 562.007 288.44 540.37 289.973 519.938C291.329 501.851 268.104 493.397 267.115 493.046L266.525 494.707C266.755 494.789 289.471 503.064 288.215 519.806C286.642 540.789 286.473 563.056 297.152 569.104C305.613 573.896 297.823 615.862 294.107 631.628L295.822 632.032Z" fill="white"/>
<path d="M337.778 613.439L321.901 673.686H286.42L270.543 613.439H337.778Z" fill="url(#paint9_linear_11999_32416)"/>
<path d="M337.778 613.439C337.778 613.439 302.826 620.003 302.826 673.686H286.42L270.543 613.439H337.778Z" fill="url(#paint10_linear_11999_32416)"/>
<path opacity="0.95" d="M784.122 234.055H679.36C669.772 234.055 662 226.281 662 216.692V125.773C662 116.183 669.773 108.409 679.36 108.409H784.122C793.71 108.409 801.483 116.183 801.483 125.773V216.692C801.483 226.282 793.71 234.055 784.122 234.055Z" fill="url(#paint11_linear_11999_32416)"/>
<path d="M736.743 210.292H725.681V212.341H736.743V210.292Z" fill="#4598E6"/>
<path d="M764.894 131.147V133.151H776.69V144.224H778.694V131.147H764.894ZM684.789 144.224H686.792V133.151H698.588V131.147H684.788L684.789 144.224ZM776.69 201.361V212.439H764.894V214.442H778.694V201.361H776.69ZM686.792 201.361H684.789V214.442H698.589V212.439H686.792L686.792 201.361Z" fill="#4598E6"/>
<path d="M555.815 304.166H541.039V306.904H555.815V304.166Z" fill="#4598E6"/>
<path d="M592.709 198.453V201.129H608.465V215.92H611.141V198.453H592.709ZM485.712 215.919H488.388V201.129H504.144V198.452H485.712V215.919ZM608.465 292.238V307.034H592.709V309.711H611.141V292.238H608.465ZM488.388 292.238H485.712V309.711H504.144V307.034H488.388V292.238Z" fill="#2195F3"/>
<path d="M882.965 390.449H858.315C856.693 378.645 854.7 365.17 854.7 365.17C854.7 365.17 853.704 376.29 852.492 390.449H753.855C752.956 377.717 751.871 368.189 751.481 367.994C750.914 367.71 747.397 379.007 744.476 390.449H717.774C724.642 360.86 737.451 313.389 744.856 310.545C755.398 306.49 798.386 293.239 798.386 293.239H822.918C822.918 293.239 866.512 305.678 870.566 319.203C873.791 329.981 880.903 365.522 882.965 390.449Z" fill="#E65353"/>
<path d="M811.78 213.639C811.78 213.639 834.687 217.248 831.199 253.096C827.712 288.943 807.494 286.005 806.143 285.968C804.791 285.932 785.847 286.622 784.37 242.854C784.37 242.854 783.725 210.49 811.78 213.639Z" fill="#EEA987"/>
<path d="M822.473 275.41C822.473 275.41 821.845 290.154 823.272 293.345C824.698 296.537 804.368 306.79 791.969 295.365C791.969 295.365 794.963 279.341 794.131 273.662C793.298 267.982 822.473 275.41 822.473 275.41Z" fill="#EEA987"/>
<path d="M831.553 242.97C831.553 242.97 834.062 240.29 834.982 243.003C835.902 245.716 831.09 257.838 831.405 258.382C831.405 258.382 830.947 259.434 830.345 258.855C829.743 258.275 831.553 242.97 831.553 242.97Z" fill="#EEA987"/>
<path d="M784.628 242.517C784.628 242.517 782.172 239.788 781.2 242.483C780.228 245.178 784.804 257.391 784.479 257.929C784.479 257.929 784.917 258.989 785.53 258.422C786.143 257.854 784.628 242.517 784.628 242.517Z" fill="#EEA987"/>
<path d="M831.543 248.468L828.263 252.853C828.263 252.853 828.356 243.239 827.83 241.732C827.304 240.225 826.499 235.62 826.059 234.534C825.619 233.448 806.388 228.058 789.401 236.108C789.401 236.108 790.148 243.02 788.52 243.636C786.892 244.251 787.69 254.895 787.69 254.895L784.993 251.852C784.993 251.852 780.866 224.272 781.885 221.398C782.904 218.523 786.152 201.241 821.003 211.5C821.003 211.5 831.867 209.198 834.047 216.701C836.228 224.204 831.543 248.468 831.543 248.468Z" fill="#D98B52"/>
<path d="M823.271 293.346C823.271 293.346 828.439 294.449 806.812 315.179C806.812 315.179 791.472 298.207 791.969 295.365C792.466 292.523 823.271 293.346 823.271 293.346Z" fill="#EEA987"/>
<path d="M806.812 315.179L812.714 325.274L830.222 295.541L822.64 290.251L806.812 315.179Z" fill="#B84343"/>
<path d="M806.812 315.179L792.489 292.384L784.368 297.604L798.927 325.274L806.812 315.179Z" fill="#B84343"/>
<path d="M802.372 378.333C802.548 381.694 802.626 385.818 802.636 390.45H801.825C801.815 385.837 801.737 381.723 801.561 378.372C800.233 353.082 806.358 322.31 806.398 315.099L807.189 315.255C807.15 322.467 801.044 353.151 802.372 378.333Z" fill="#B84343"/>
<path d="M796.264 281.749C796.264 281.749 801.705 287.504 809.393 285.97C817.081 284.435 820.494 280.914 820.494 280.914C820.494 280.914 817.459 288.527 808.572 289.223C799.684 289.919 796.264 281.749 796.264 281.749Z" fill="#C78D71"/>
<path d="M530.845 199.467C530.828 199.467 530.81 199.465 530.793 199.461C530.275 199.335 529.457 196.857 529.298 196.362C529.261 196.226 529.18 195.976 529.069 195.631C528.427 193.647 526.925 189.001 527.51 187.222C527.695 186.66 527.983 186.335 528.366 186.255C529.189 186.085 530.129 187.129 530.169 187.174L530.188 187.196L530.192 187.227C530.405 189.181 531.448 198.953 530.998 199.401C530.954 199.445 530.901 199.467 530.845 199.467ZM528.556 186.425C528.505 186.425 528.454 186.43 528.405 186.44C528.092 186.506 527.852 186.788 527.69 187.281C527.124 189.003 528.667 193.776 529.249 195.573C529.361 195.921 529.442 196.172 529.48 196.308C529.86 197.495 530.534 199.204 530.838 199.278C530.845 199.28 530.851 199.281 530.865 199.268C531.151 198.88 530.493 191.722 530.007 187.278C529.881 187.143 529.18 186.425 528.556 186.425Z" fill="#EEA886"/>
<path d="M547.874 160.509C547.874 160.509 560.483 159.187 565.026 171.366C569.569 183.546 573.848 187.533 574.383 193.932C576.549 219.811 588.632 213.957 585.234 228.874C581.836 243.792 579.482 246.048 579.482 246.048L550.595 240.383L521.332 240.478C521.332 240.478 532.781 234.759 530.232 222.58C527.684 210.4 521.332 190.438 524.919 176.842C528.506 163.247 540.338 161.547 547.874 160.509Z" fill="#16202E"/>
<path d="M563.273 199.467C563.217 199.467 563.164 199.445 563.12 199.401C562.671 198.953 563.713 189.181 563.927 187.226L563.93 187.196L563.95 187.173C563.99 187.129 564.93 186.083 565.752 186.255C566.136 186.334 566.423 186.659 566.609 187.221C567.194 189.001 565.692 193.647 565.05 195.631C564.939 195.976 564.858 196.225 564.821 196.357C564.662 196.857 563.843 199.335 563.326 199.46C563.308 199.465 563.291 199.467 563.273 199.467ZM564.111 187.278C563.626 191.722 562.968 198.88 563.256 199.27C563.267 199.281 563.274 199.28 563.281 199.278C563.585 199.204 564.259 197.494 564.64 196.304C564.677 196.172 564.758 195.921 564.87 195.573C565.451 193.776 566.995 189.002 566.429 187.281C566.267 186.788 566.026 186.505 565.714 186.44C565.058 186.305 564.248 187.132 564.111 187.278Z" fill="#EEA886"/>
<path d="M607.162 276.867H589.162C585.429 270.064 582.397 264.742 582.397 264.742C582.397 264.742 579.971 269.169 578.089 276.867H517.492C516.567 272.065 516.51 267.462 516.704 264.185C516.704 264.185 513.466 270.038 509.708 276.867H489.351C494.753 266.749 504.875 248.327 507.176 245.925C510.064 242.898 526.808 231.323 538.762 227.546C550.722 223.769 557.519 227.415 557.519 227.415C557.519 227.415 569.798 229.628 581.152 234.131C585.616 235.9 597.946 258.676 607.162 276.867Z" fill="#FAA146"/>
<path d="M549.537 167.632C549.537 167.632 566.236 170.043 563.792 194.7C561.347 219.357 546.608 217.4 545.624 217.379C544.639 217.359 530.837 217.892 529.644 187.805C529.644 187.805 529.087 165.555 549.537 167.632Z" fill="#8E4F3A"/>
<path d="M556.956 213.006C556.956 213.006 555.923 225.832 558.392 229.675C560.862 233.517 556.28 238.732 546.839 236.948C537.398 235.164 537.947 229.812 537.947 229.812C537.947 229.812 540.591 221.897 539.818 215.561C539.046 209.225 556.956 213.006 556.956 213.006Z" fill="#8E4F3A"/>
<path d="M547.627 176.569C547.627 176.569 555.43 184.773 559.054 188.928C562.678 193.082 563.095 201.107 563.095 201.107C563.095 201.107 569.2 193.649 566.647 184.962C564.094 176.276 558.053 159.376 542.761 164.569C527.468 169.761 526.902 192.61 528.696 203.94C528.696 203.94 535.56 178.929 547.627 176.569Z" fill="#16202E"/>
<path d="M562.82 228.542C562.82 228.542 551.238 257.88 544.199 262.979C544.199 262.979 534.953 233.056 535.599 228.675C535.599 228.675 549.547 223.209 562.82 228.542Z" fill="#8E4F3A"/>
<path d="M538.346 221.447C538.346 221.447 517.7 239.82 523.058 251.282C527.631 261.065 543.845 255.065 541.171 244.815C538.496 234.565 538.346 221.447 538.346 221.447Z" fill="#16202E"/>
<path d="M541.046 216.262C541.046 216.262 548.161 219.626 555.086 214.657C555.086 214.657 553.163 218.631 548.066 219.196C542.969 219.76 541.046 216.262 541.046 216.262Z" fill="#633029"/>
<path d="M724.288 148.395C724.288 148.395 717.441 174.168 716.012 179.976C715.587 181.725 714.214 184.749 712.471 188.198C712.459 188.222 712.447 188.247 712.428 188.278C712.053 189.035 711.874 189.725 711.788 190.372C711.511 192.521 712.336 194.215 710.908 196.764L710.649 197.836H697.097C698.679 193.137 700.687 187.157 702.293 182.341C703.642 178.276 704.707 175.043 704.99 174.107C705.828 171.311 708.9 162.257 711.511 156.247C712.422 154.153 715.932 152.084 719.041 150.587C721.824 149.263 724.288 148.395 724.288 148.395Z" fill="#323657"/>
<path d="M715.221 111.578C715.221 111.578 710.9 83.6248 734.047 84.1403C757.195 84.6559 756.885 98.4784 756.473 112.197C756.06 125.916 747.191 124.885 757.195 143.967C767.198 163.05 748.532 163.05 748.532 163.05L734.048 143.142L715.221 111.578Z" fill="#FCCCA2"/>
<path d="M731.515 86.8227C731.515 86.8227 715.839 89.2984 715.221 111.579C714.602 133.859 719.449 138.604 733.166 133.963C746.881 129.321 751.213 106.009 751.523 102.398C751.832 98.788 752.657 84.1407 731.515 86.8227Z" fill="#EEA886"/>
<path d="M759.045 164.321C759.101 171.988 750.29 190.328 748.929 195.994C748.769 196.653 748.597 197.263 748.424 197.836H705.643C705.422 195.194 705.212 192.933 705.108 191.659C704.769 187.471 700.527 178.449 700.668 174.248C700.816 169.968 702.915 166.273 705.853 161.703C706.764 160.287 707.724 158.846 708.679 157.442C711.794 152.872 714.904 148.721 716.431 147.292C717.57 146.233 718.629 145.42 719.553 144.804C719.559 144.798 719.559 144.798 719.559 144.798C721.48 143.517 722.773 143.104 722.773 143.104L736.245 140.949C736.245 140.949 744.644 143.991 749.478 145.118C749.477 145.118 758.904 146.498 759.045 164.321Z" fill="#E55353"/>
<path d="M719.561 144.798L711.752 157.108L704.544 168.47C704.561 168.408 705.041 166.688 705.855 161.706C706.01 160.761 706.176 159.697 706.354 158.506C706.406 158.153 706.483 157.804 706.581 157.458C706.581 157.458 706.581 157.458 706.581 157.457C709.665 150.344 719.204 144.98 719.552 144.802C719.557 144.799 719.561 144.798 719.561 144.798Z" fill="#E55353"/>
<path d="M741.984 123.926C740.625 126.493 739.19 142.424 739.19 142.424C739.19 142.424 720.017 149.672 721.98 145.572C722.87 143.712 723.131 141.297 723.149 139.216C723.166 137.574 723.031 136.14 722.936 135.346C722.886 134.927 722.848 134.685 722.848 134.685C722.848 134.685 743.343 121.359 741.984 123.926Z" fill="#EEA886"/>
<path d="M725.121 102.811C725.121 102.811 733.166 115.911 740.487 121.069C747.81 126.226 744.097 130.352 744.097 130.352C744.097 130.352 763.202 90.1236 745.038 87.3387C726.874 84.5537 715.736 84.3474 715.22 111.579C715.22 111.579 723.471 102.605 725.121 102.811Z" fill="#FCCCA2"/>
<path d="M733.868 133.705C730.926 138.047 723.15 139.216 723.15 139.216C723.15 139.216 723.15 139.216 723.149 139.216C723.166 137.574 723.031 136.141 722.936 135.346C727.932 136.309 733.868 133.705 733.868 133.705Z" fill="#A77860"/>
<path d="M706.613 157.373H706.612C706.612 157.373 706.196 158.236 705.854 161.706L708.679 157.444C708.679 157.444 713.722 150.211 715.45 148.33C717.178 146.45 719.552 144.802 719.552 144.802C719.552 144.802 709.629 149.571 706.613 157.373Z" fill="#EBEEFF"/>
<path d="M744.766 168.159C744.766 168.159 757.071 163.332 760.712 163.05C760.712 163.05 758.237 143.286 746.149 145.381C734.062 147.475 744.766 168.159 744.766 168.159Z" fill="#E55353"/>
<path d="M722.772 143.103C722.772 143.103 713.738 156.998 716.796 158.212C719.854 159.425 736.408 156.592 743.447 143.394C743.447 143.394 732.923 137.997 722.772 143.103Z" fill="#EEA886"/>
<path d="M760.714 163.052C760.086 173.947 756.995 184.28 754.446 193.765C754.077 195.138 753.719 196.499 753.387 197.836H728.333C728.272 194.079 728.283 190.766 728.4 188.001C729.663 157.762 739.244 141.861 739.244 141.861C739.244 141.861 742.304 142.889 751.109 145.383C757.143 147.089 759.422 154.769 760.252 159.425C760.252 159.425 760.259 159.443 760.265 159.48C760.634 161.58 760.714 163.052 760.714 163.052Z" fill="#323657"/>
<path d="M722.766 143.111C722.668 143.283 721.018 146.054 719.041 150.587C716.074 157.393 712.367 168.17 712.053 180.044C711.955 183.856 711.197 190.033 710.046 197.836H705.045C704.541 191.307 703.346 186.091 702.293 182.341C701.61 179.908 700.982 178.091 700.643 176.939C699.048 171.514 704.147 164.29 705.853 161.703C707.564 159.123 711.652 147.249 722.766 143.111Z" fill="#323657"/>
<path d="M768.694 197.835H755.24C755.24 196.961 754.939 195.532 754.446 193.765C752.002 185.075 744.767 168.157 744.767 168.157C744.767 168.157 733.942 150.464 744.2 145.955C754.458 141.448 758.873 154.048 760.252 159.425C760.252 159.425 760.259 159.443 760.265 159.48C760.603 160.767 766.712 184.059 768.694 197.835Z" fill="#323657"/>
<path d="M549.274 450.11C549.274 450.11 553.976 450.044 555.649 448.232C557.323 446.42 560.28 444.796 561.228 444.335C562.496 443.717 566.004 440.306 566.444 441.972C566.884 443.637 560.858 447.863 559.712 449.004C558.564 450.144 564.717 450.642 565.62 451.748C566.523 452.855 563.383 464.5 559.283 463.598C555.183 462.696 551.825 458.561 551.05 458.569C550.275 458.578 548.022 458.052 548.022 458.052L549.274 450.11Z" fill="#EEA886"/>
<path d="M564.748 451.273C564.748 451.273 576.986 455.011 577.491 456.071C577.995 457.13 577.653 457.905 576.487 457.612C575.321 457.319 564.507 454.406 564.507 454.406C564.507 454.406 577.882 461.72 578.484 462.452C578.836 462.881 578.25 464.41 577.602 464.321C576.954 464.232 563.186 457.916 563.186 457.916C563.186 457.916 575.658 464.772 575.969 465.587C576.241 466.3 575.406 467.613 574.437 467.183C573.469 466.753 561.449 461.194 561.449 461.194C561.449 461.194 570.14 466.887 570.005 467.824C569.923 468.397 569.467 469.735 567.279 468.178C565.09 466.621 559.481 463.632 559.481 463.632L564.748 451.273Z" fill="#EEA886"/>
<path d="M523.53 656.602C523.53 656.602 527.457 662.477 532.964 663.746C538.471 665.016 543.895 667.034 543.937 670.51C543.978 673.986 528.014 676.059 521.712 672.555C512.307 667.325 511.35 668.902 510.307 666.287C509.265 663.673 511.56 656.682 511.492 655.851C511.409 654.823 523.53 656.602 523.53 656.602Z" fill="#353A3D"/>
<path d="M522.921 653.704C522.921 653.704 523.637 656.542 523.53 656.602C523.424 656.662 511.12 658.128 511.493 655.851C511.795 654.004 512.225 651.997 512.225 651.997L522.921 653.704Z" fill="#81807E"/>
<path d="M446.271 656.212C446.271 656.212 449.072 661.832 453.857 663.746C458.971 665.793 463.072 668.144 462.979 671.531C462.886 674.918 450.476 678.35 441.448 671.85C435.744 667.743 433.937 667.723 433.021 665.137C432.106 662.551 434.61 655.83 434.576 655.019C434.534 654.014 446.271 656.212 446.271 656.212Z" fill="#353A3D"/>
<path d="M446.411 653.294C446.411 653.294 446.377 656.158 446.271 656.212C446.165 656.266 434.274 657.246 434.576 655.018C434.816 653.248 435.73 651.109 435.73 651.109L446.411 653.294Z" fill="#81807E"/>
<path d="M490.011 481.622C490.011 481.622 505.629 541.468 511.576 555.304C517.086 568.122 518.904 586.049 519.663 595.054C520.617 606.379 526.296 650.48 526.964 653.791C527.632 657.103 508.591 655.623 508.591 655.623C508.591 655.623 495.462 579.37 490.011 568.243C486.374 560.817 465.268 507.564 462.853 510.631C460.438 513.697 457.443 567.055 455.655 575.912C453.866 584.77 448.375 654.755 448.375 654.755C448.375 654.755 436.099 656.567 432.82 653.791C432.82 653.791 431.327 594.032 432.467 577.426C432.901 571.098 425.053 501.546 435.116 473.546C440.434 458.749 490.011 481.622 490.011 481.622Z" fill="#2D3133"/>
<path d="M403.017 438.706C403.017 439.39 404.309 442.128 406.372 446.066C409.388 440.032 411.758 435.076 412.533 433.253C415.075 427.248 428.173 413.485 428.173 413.485C428.173 413.485 428.173 413.494 428.179 413.514C428.179 413.519 428.181 413.525 428.183 413.531C428.185 413.535 428.187 413.54 428.187 413.546C428.193 413.565 428.198 413.584 428.202 413.603C428.212 413.636 428.221 413.674 428.235 413.72C428.242 413.743 428.248 413.768 428.254 413.793C428.26 413.812 428.266 413.829 428.269 413.848C428.983 416.506 433.362 433.117 433.523 441.299C433.701 450.206 436.025 466.686 436.025 466.686L436.034 466.688L438.769 467.071L444.821 467.924L445.546 468.026L447.307 468.273L463.355 470.531L469.047 471.332L469.816 471.441L473.07 471.899L482.053 473.162L484.344 473.484L484.366 473.488L486.081 473.729L488.454 474.062C488.454 474.062 488.454 474.062 488.456 474.061C488.521 473.972 490.764 470.902 490.417 464.081C490.198 459.679 489.667 451.405 489.887 443.73C489.887 443.691 489.891 443.65 489.891 443.612C489.891 443.515 489.897 443.419 489.899 443.321C489.903 443.286 489.903 443.256 489.905 443.223V443.206C490.044 438.989 490.416 434.992 491.202 431.956C491.732 429.9 492.086 427.865 492.318 425.958C492.329 425.864 492.341 425.773 492.352 425.681C492.393 425.327 492.431 424.976 492.464 424.632C492.975 419.308 492.573 415.256 492.547 415.018L492.557 415.037C492.72 415.391 493.891 419.685 495.426 424.986C498.021 433.947 501.654 445.786 503.202 446.355C505.453 447.184 541.914 457.984 549.788 459.091C550.699 459.218 551.227 459.217 551.277 459.056C551.314 458.941 551.35 458.822 551.386 458.7C552.343 455.545 553.658 450.184 553.869 449.318C553.89 449.24 553.899 449.197 553.899 449.197L552.489 448.774L512.816 436.883L494.679 384.574C494.3 384.271 489.847 382.114 486.593 380.567C483.276 378.987 479.277 376.668 475.655 374.682C473.808 373.671 472.061 372.749 470.551 372.056L470.319 371.951L470.317 371.949C467.82 370.806 466.16 370.05 466.16 370.05C466.16 370.05 466.158 370.05 466.152 370.05C466.093 370.044 465.701 370.006 465.067 369.947C461.584 369.616 450.759 368.601 447.132 368.388C446.834 368.369 446.583 368.358 446.39 368.354C446.223 368.348 446.101 368.346 446.024 368.352C445.565 368.379 443.335 369.158 440.401 370.274H440.399C440.288 370.316 440.177 370.358 440.064 370.402C439.926 370.454 439.788 370.505 439.649 370.559C439.394 370.657 439.136 370.756 438.874 370.858C438.349 371.062 437.81 371.273 437.262 371.489C437.075 371.564 436.883 371.639 436.69 371.715C430.822 374.045 424.099 376.924 422.5 378.073C421.446 378.829 418.158 385.027 414.345 392.692C409.436 408.421 403.214 432.499 403.021 438.437C403.019 438.531 403.017 438.621 403.017 438.706Z" fill="#DECBC4"/>
<path d="M488.454 474.06C488.454 474.06 489.662 475.505 490.011 481.622C490.011 481.622 440.365 475.829 435.116 473.546C435.116 473.546 434.911 466.804 436.024 466.687C437.247 466.559 488.454 474.06 488.454 474.06Z" fill="#495055"/>
<path d="M446.117 366.668C446.271 374.461 461.357 378.724 461.357 378.724C461.357 378.724 467.668 370.812 466.161 370.053C465.569 369.756 465.328 368.575 465.254 367.251C465.186 365.99 465.267 364.599 465.34 363.716C465.385 363.165 465.428 362.81 465.428 362.81C465.428 362.81 463.272 360.535 460.53 357.825C455.738 353.086 449.151 347.016 449.14 349.431C449.14 349.559 449.157 349.712 449.196 349.889C450.354 355.323 446.117 366.668 446.117 366.668Z" fill="#EEA886"/>
<path d="M447.368 467.882C447.368 467.882 446.285 474.717 446.191 476.498L443.894 476.04C443.894 476.04 444.527 468.809 444.899 467.597L447.368 467.882Z" fill="#353A3D"/>
<path d="M484.313 473.262C484.313 473.262 485.183 479.475 485.204 481.821L482.774 481.505C482.774 481.505 482.276 473.747 481.999 472.937L484.313 473.262Z" fill="#353A3D"/>
<path d="M451.927 355.249C451.927 355.249 451.927 355.249 451.928 355.25C451.958 355.296 452.598 356.253 453.69 357.628C456.006 360.541 460.36 365.328 465.255 367.25C465.187 365.99 465.267 364.599 465.341 363.716C465.841 363.703 466.342 363.645 466.839 363.536C465.497 361.19 463.559 358.732 463.559 358.732L460.53 357.826L451.927 355.249Z" fill="#A77860"/>
<path d="M449.031 349.536C450.337 352.376 451.575 354.434 451.927 355.249C451.927 355.249 451.927 355.249 451.928 355.25C452.157 355.781 452.78 356.647 453.69 357.628C456.176 360.306 460.798 363.84 465.341 363.716C465.841 363.703 466.342 363.645 466.839 363.536C468.673 363.134 470.839 362.282 472.031 359.948C481.443 341.517 474.629 326.446 474.629 326.446C474.629 326.446 448.895 319.167 444.868 326.916C442.042 332.351 445.965 342.864 449.031 349.536Z" fill="#EEA886"/>
<path d="M474.628 326.446C474.628 326.446 477.019 326.313 477.609 321.782C478.193 317.304 477.013 316.063 477.013 316.063C477.013 316.063 466.389 311.615 462.574 311.036C458.758 310.458 449.377 309.902 447.178 312.417C447.178 312.417 441.835 311.175 440.38 320.047C438.07 334.12 448.248 347.786 448.248 347.786C448.248 347.786 448.162 338.592 450.189 337.374C452.216 336.155 453.966 339.053 453.966 339.053L458.113 339.796C458.113 339.796 451.814 326.193 459.37 325.689C466.925 325.185 470.303 327.235 474.628 326.446Z" fill="#252E3B"/>
<path d="M453.852 335.387C453.457 331.337 446.134 329.79 446.624 334.036C447.115 338.281 450.721 342.361 452.387 342.217C454.054 342.073 454.152 338.475 453.852 335.387Z" fill="#EEA886"/>
<path d="M406.372 446.066C409.563 452.153 414.596 461.11 419.566 469.795C418.912 471.016 418.273 472.228 417.66 473.424C416.165 476.349 414.839 479.18 413.898 481.82C412.765 484.994 411.189 493.124 414.204 494.634L430.085 503.402C430.085 503.402 430.196 503.092 430.407 502.517C430.933 501.091 432.074 498.04 433.653 494.087C433.705 493.959 433.864 493.582 434.099 493.027C434.415 492.282 434.87 491.218 435.391 490.002C435.624 489.458 435.869 488.885 436.124 488.295C436.411 487.621 436.71 486.926 437.006 486.235C437.438 485.228 437.869 484.227 438.267 483.3C439.351 480.777 440.197 478.813 440.197 478.813C440.25 478.697 440.304 478.582 440.357 478.465C440.874 477.347 441.404 476.225 441.944 475.107C442.778 473.375 443.637 471.65 444.516 469.964C444.604 469.791 444.692 469.621 444.782 469.451C444.939 469.154 445.096 468.857 445.252 468.564C445.35 468.384 445.448 468.204 445.545 468.027C445.567 467.986 445.589 467.946 445.611 467.906C445.651 467.835 445.689 467.764 445.729 467.693C450.321 459.316 455.492 452.312 457.142 442.04C457.3 441.049 457.451 440.063 457.595 439.085C457.834 437.454 458.054 435.844 458.256 434.266C458.33 433.669 458.405 433.079 458.476 432.493C459.302 425.64 459.796 419.534 460.194 415.281C461.436 402.03 453.321 387.682 447.092 378.82C443.76 374.08 440.969 370.908 440.431 370.307C440.418 370.296 440.409 370.284 440.399 370.275C440.288 370.317 440.177 370.359 440.064 370.402C439.926 370.455 439.788 370.506 439.649 370.56C439.394 370.657 439.135 370.757 438.873 370.859C438.349 371.063 437.809 371.274 437.262 371.49C437.075 371.565 436.883 371.639 436.69 371.716C430.657 374.082 417.953 377.577 416.354 378.724C415.432 379.384 413.367 385.431 410.985 393.069C406.076 408.799 403.162 432.515 403.021 438.438C403.018 438.532 403.017 438.622 403.017 438.706C403.017 439.39 404.309 442.128 406.372 446.066ZM430.504 443.107C430.504 446.062 429.544 449.446 428.066 453.053C428.028 453.143 427.992 453.235 427.954 453.325C426.935 451.152 425.976 449.071 425.117 447.144C425.115 447.14 425.113 447.138 425.113 447.134C422.75 441.843 421.127 437.716 421.037 436.083C420.453 425.591 428.18 413.514 428.18 413.514C428.18 413.52 428.181 413.526 428.183 413.532C428.185 413.535 428.187 413.541 428.187 413.547C428.193 413.566 428.199 413.585 428.203 413.604C428.214 413.642 428.225 413.681 428.235 413.721C428.243 413.744 428.249 413.769 428.254 413.794C428.26 413.813 428.266 413.83 428.27 413.849C429.852 420.085 430.504 443.107 430.504 443.107Z" fill="#3C4145"/>
<path d="M460.671 482.639L415.402 502.792C412.841 503.932 409.841 502.78 408.701 500.219L396.308 472.37C395.168 469.809 396.32 466.809 398.881 465.668L444.15 445.515C446.71 444.375 449.711 445.527 450.85 448.089L463.243 475.937C464.383 478.498 463.231 481.499 460.671 482.639Z" fill="#B3A5A0"/>
<path d="M470.432 372.15C470.432 372.15 472.554 379.22 475.301 396.865C475.301 396.867 475.301 396.869 475.303 396.871C475.397 397.464 475.489 398.067 475.582 398.684C475.592 398.755 475.603 398.827 475.615 398.898C475.676 399.306 475.739 399.719 475.8 400.139C475.808 400.189 475.816 400.238 475.823 400.286C475.865 400.567 475.908 400.851 475.948 401.138C476.051 401.835 476.154 402.545 476.258 403.268C477.483 411.858 479.201 426.475 480.853 441.232V441.238C482.158 452.869 485.133 464.805 486.078 473.711C486.078 473.718 486.08 473.723 486.08 473.729C486.268 475.475 486.714 477.801 487.317 480.425C487.384 480.722 487.454 481.022 487.525 481.326C490.186 492.569 495.351 508.483 495.351 508.483L496.855 507.093L501.311 502.979C502.337 502.034 502.726 500.583 502.312 499.252C499.841 491.279 491.443 463.063 489.904 443.223C489.902 443.217 489.902 443.212 489.902 443.206C490.658 436.235 492.587 426.881 492.298 425.535C492.317 425.583 492.335 425.631 492.352 425.681C493.236 428.14 494.216 430.815 495.203 433.418V433.42C497.854 440.411 500.566 446.889 501.695 447.302C504.208 448.227 549.345 461.546 549.672 459.688C549.705 459.5 549.743 459.301 549.787 459.091C549.827 458.884 549.873 458.665 549.921 458.438C550.478 455.894 551.49 452.245 552.197 449.781C552.302 449.418 552.4 449.079 552.488 448.775C552.784 447.754 552.978 447.107 552.978 447.107L514.807 434.577L495.547 384.2C495.168 383.9 490.254 381.254 487 379.706C483.613 378.092 479.325 376.101 475.522 374.346C473.706 373.505 471.995 372.721 470.55 372.056L470.432 372.15Z" fill="#3C4145"/>
<path d="M444.588 389.615L451.927 393.754L448.792 396.953L457.141 442.041C458.843 431.473 459.618 421.437 460.195 415.282C462.114 394.797 441.672 371.688 440.4 370.274C439.418 370.646 438.358 371.058 437.262 371.491L444.588 389.615Z" fill="#51565C"/>
<path d="M470.319 371.952C470.319 371.952 473.061 380.909 476.257 403.268C477.482 411.857 479.201 426.476 480.854 441.231L482.562 399.005L479.066 395.216L482.174 391.331L475.523 374.346C473.706 373.505 471.996 372.72 470.55 372.056L470.319 371.952Z" fill="#51565C"/>
<path d="M439.991 370.429L446.117 366.667C446.117 366.667 446.288 370.005 461.357 378.724L457.078 390.78L439.991 370.429Z" fill="#F5E2D9"/>
<path d="M465.366 368.349C465.366 368.349 465.129 371.952 461.357 378.724L469.71 389.614L470.318 371.952L465.366 368.349Z" fill="#F5E2D9"/>
<path d="M461.335 378.724C461.335 378.724 459.716 385.2 460.299 387.013C460.299 387.013 463.858 388.309 466.417 386.689C466.417 386.689 464.604 382.156 461.335 378.724Z" fill="#FAA146"/>
<path d="M469.702 472.123C470.608 467.554 469.746 453.862 469.709 453.281L468.934 453.331C468.943 453.472 469.827 467.502 468.941 471.972L469.702 472.123Z" fill="#AD9F99"/>
<path d="M463.365 470.016C463.365 470.016 470.67 470.889 473.085 471.492L472.769 479.681L463.203 478.66L463.365 470.016Z" fill="#69737A"/>
<path d="M464.963 386.106C464.963 386.106 473.111 406.686 471.782 429.72C470.404 453.602 468.144 462.262 468.144 462.262L463.12 468.563L460.905 460.818C460.905 460.818 467.646 430.37 463.295 400.742C462.506 395.373 461.335 385.2 461.335 385.2L464.963 386.106Z" fill="#FAA146"/>
<path d="M440.481 483.293C440.481 483.293 442.229 486.79 443.978 487.373C445.726 487.955 448.276 490.797 448.276 490.797L435.965 497.281C435.965 497.281 432.688 490.87 432.542 486.79C432.396 482.71 440.481 483.293 440.481 483.293Z" fill="#EEA886"/>
<path d="M441.65 483.621L442.465 485.261C442.465 485.261 434.647 490.98 432.54 491.344L431.816 489.158L441.65 483.621Z" fill="#DECBC4"/>
<path d="M442.465 483.693C442.465 483.693 436.606 488.539 431.67 490.773L409.552 451.982L423.669 444.262C423.669 444.262 442.076 480.778 442.465 483.693Z" fill="#3C4145"/>
<path d="M492.067 415.097C492.338 420.624 492.298 425.531 492.298 425.531C492.298 425.531 492.298 425.533 492.298 425.536C492.3 425.562 492.306 425.711 492.317 425.959C492.329 425.865 492.34 425.773 492.352 425.681C493.236 428.141 494.216 430.815 495.204 433.418C495.434 430.401 495.493 427.589 495.426 424.986C495.029 409.49 490.157 401.364 490.157 401.364C491.274 404.065 491.81 409.859 492.067 415.097Z" fill="#2D3133"/>
<path d="M684.262 364.012C684.262 364.012 684.031 361.164 684.366 359.835C684.945 357.54 684.092 353.823 686.978 352.02C689.864 350.217 698.161 357.769 698.814 359.878C699.467 361.987 696.364 365.584 689.877 368.604C683.39 371.625 684.262 364.012 684.262 364.012Z" fill="#EEA886"/>
<path d="M686.095 352.768C686.095 352.768 688.896 348.551 692.594 344.244C695.838 340.465 700.392 336.227 701.353 337.031C702.813 338.254 698.681 341.301 695.719 345.265C692.992 348.914 694.149 348.655 694.149 348.655C694.149 348.655 693.815 348.711 697.57 345.316C701.607 341.667 706.095 337.916 706.895 338.56C707.886 339.359 707.942 339.542 706.696 341.108C707.608 340.363 707.944 340.508 708.295 340.861C710.113 342.687 705.028 348.979 703.009 351.477C704.572 349.567 705.926 348.335 706.317 350.171C706.763 352.272 699.168 360.841 696.746 364.173C694.105 367.809 686.095 352.768 686.095 352.768Z" fill="#EEA886"/>
<path d="M589.044 655.534C589.044 655.534 596.94 660.204 600.515 661.939C604.09 663.674 617.981 664.171 619.354 665.476C620.726 666.78 620.223 670.933 617.921 671.357C615.619 671.781 598.736 673.308 593.102 671.991C587.469 670.674 576.933 672.891 574.6 672.098C572.267 671.305 573.772 658.725 574.673 655.901C575.575 653.077 589.044 655.534 589.044 655.534Z" fill="#181929"/>
<path d="M589.702 650.391L589.044 655.534C589.044 655.534 578.488 657.508 575.29 655.882L576.082 650.538L589.702 650.391Z" fill="#22243B"/>
<path d="M632.049 474.688C631.937 478.25 631.288 485.979 630.533 494.095C630.364 495.898 630.187 497.722 630.013 499.522C628.96 510.445 627.898 520.547 627.898 520.547C626.564 529.241 623.814 544.336 620.739 555.748V555.751C619.851 559.045 618.94 562.031 618.025 564.469C617.133 566.842 616.24 568.695 615.372 569.805C608.831 578.163 593.832 652.259 593.832 652.259L573.358 652.102C573.358 652.102 577.861 601.929 582.387 589.212C587.435 575.008 596.208 555.866 594.03 542.167C592.667 533.57 590.908 506.206 590.908 506.206C590.908 506.206 589.197 475.458 597.238 452.937C599.244 447.31 632.049 474.688 632.049 474.688Z" fill="#292C47"/>
<path d="M646.58 657.459C646.58 657.459 654.419 662.222 657.973 664C661.527 665.778 675.411 666.443 676.768 667.763C678.124 669.084 677.572 673.231 675.264 673.627C672.957 674.024 656.057 675.348 650.44 673.963C644.822 672.578 634.261 674.669 631.938 673.848C629.614 673.027 631.27 660.466 632.206 657.654C633.141 654.841 646.58 657.459 646.58 657.459Z" fill="#181929"/>
<path d="M647.299 652.324L646.58 657.459C646.58 657.459 636.001 659.307 632.822 657.642L633.679 652.308L647.299 652.324Z" fill="#22243B"/>
<path d="M622.825 578.848C622.293 562.46 620.845 551.572 616.629 542.105C613.088 534.155 610.058 509.186 610.058 509.186C610.058 509.186 600.463 479.928 602.407 456.091C602.894 450.139 639.983 465.104 639.983 465.104C640.795 468.575 643.276 479.497 644.156 487.598C649.178 533.882 647.298 564.035 647.298 564.035C644.43 574.255 651.677 654.663 651.677 654.663H630.801C630.801 654.663 625.328 626.059 624.753 608.269C624.753 608.269 622.619 581.681 622.825 578.848Z" fill="#292C47"/>
<path d="M622.36 366.794C622.36 366.794 632.086 382.744 634.93 391.643C637.774 400.542 635.483 426.418 635.985 431.618C637.541 447.754 639.813 465.517 639.813 465.517L607.207 486.349C607.207 486.349 601.355 472.676 596.251 455.651C591.148 438.626 590.737 423.299 590.785 413.057C590.934 380.931 608.296 362.791 608.296 362.791L622.36 366.794Z" fill="#CFBEB6"/>
<path d="M634.343 324.016C634.343 324.016 641.028 331.173 639.14 333.055C637.58 334.61 643.727 341.742 644.601 342.941C645.475 344.141 641.871 346.125 641.278 347.201C640.685 348.276 641.034 359.501 637.94 360.655C634.846 361.809 619.219 360.589 614.256 357.558C609.292 354.528 601.285 337.053 601.86 328.644C602.434 320.235 622.584 311.536 634.343 324.016Z" fill="#EEA886"/>
<path d="M628.02 358.23C628.02 358.23 627.906 359.184 627.753 360.662C627.696 361.283 627.62 361.988 627.553 362.761C627.515 363.219 627.476 363.705 627.429 364.201C627.42 364.334 627.4 364.468 627.391 364.602C627.372 364.831 627.353 365.06 627.334 365.298C627.257 366.376 627.181 367.492 627.124 368.598C626.981 371.45 626.962 374.178 627.267 375.695C628.087 379.853 610.178 362.303 610.178 362.303C610.178 362.303 611.694 348.692 610.96 333.393C610.216 318.094 628.02 358.23 628.02 358.23Z" fill="#EEA886"/>
<path d="M635.715 325.587C635.715 325.587 638.877 318.125 629.123 312.944C617.641 306.845 605.466 322.158 603.85 323.06C602.235 323.962 594.893 332.225 602.078 343.179C611.144 357.002 610.665 356.538 610.665 356.538C610.665 356.538 611.574 346.342 611.515 344.374C611.406 340.778 620.837 340.352 620.837 340.352C620.837 340.352 616.964 335.195 621.27 332.882C625.576 330.57 630.612 325.082 635.715 325.587Z" fill="#3A3F47"/>
<path d="M615.885 339.046C615.199 338.081 612.68 333.822 609.44 337.563C606.2 341.303 614.888 348.297 615.606 348.228C616.324 348.16 621.663 347.165 615.885 339.046Z" fill="#EEA886"/>
<path d="M641.592 472.39C641.592 472.39 639.97 464.761 639.656 463.62L591.972 471.555L592.461 477.721C592.461 477.721 626.817 475.663 641.592 472.39Z" fill="#23263D"/>
<path d="M587.728 438.778C587.728 438.778 595.054 470.42 583.581 507.334C582.18 511.84 615.337 506.632 615.337 506.632L587.728 438.778Z" fill="#FAA146"/>
<path d="M629.848 504.315C629.848 504.315 606.296 509.485 599.681 507.148C599.681 507.148 590.056 472.126 586.698 436.579C586.438 433.831 586.217 431.084 586.04 428.351C586.04 428.345 586.04 428.345 586.04 428.345C584.167 399.426 591.525 370.088 608.294 362.793C608.766 363.112 632.383 383.938 631.934 403C631.902 404.29 631.884 405.586 631.875 406.881C631.86 409.224 631.878 411.573 631.928 413.917L631.931 413.92C632.082 421.171 632.53 428.404 633.171 435.428C633.235 436.16 633.306 436.892 633.377 437.618C633.492 438.798 633.613 439.97 633.737 441.136C633.905 442.688 634.079 444.225 634.262 445.751C638.074 477.565 629.848 504.315 629.848 504.315Z" fill="#FAA146"/>
<path d="M628.88 380.723C628.88 380.723 633.317 398.291 635.008 420.395C636.424 438.889 638.313 451.968 638.313 451.968L641.144 461.123L642.308 452.294C642.308 452.294 641.269 428.426 639.885 418.717C638.489 408.928 637.879 396.499 630.055 380.379L628.88 380.723Z" fill="#D44040"/>
<path d="M628.385 380.736C628.385 380.736 628.919 381.249 629.676 381.361C630.433 381.473 631.516 380.263 627.648 375.156L628.385 380.736Z" fill="#D44040"/>
<path d="M610.386 360.151C610.386 360.151 621.353 370.481 627.878 372.76L629.123 382.655L608.296 362.791L610.386 360.151Z" fill="#EDDAD3"/>
<path d="M617.748 400.143C613.426 398.607 595.461 389.884 600.239 379.702C605.017 369.52 617.335 374.937 626.606 379.079C636.307 383.413 659.208 396.731 661.02 395.49C662.832 394.249 670.753 382.911 672.185 380.384C673.616 377.858 682.263 361.708 683.077 360.491C683.873 359.301 696.433 369.851 696.433 369.851C696.433 369.851 673.88 409.91 667.812 416.288C661.744 422.666 617.748 400.143 617.748 400.143Z" fill="#FAA146"/>
<path d="M620.739 555.749V555.752C619.851 559.045 618.94 562.032 618.025 564.47C618.022 564.466 618.022 564.466 618.022 564.466L610.881 521.861C612.687 525.901 620.739 555.749 620.739 555.749Z" fill="#181929"/>
<path d="M631.928 413.917L611.265 397.035C616.738 399.969 630.19 406.114 631.875 406.881C631.86 409.224 631.878 411.573 631.928 413.917Z" fill="#8F5C28"/>
<path d="M627.753 360.663C627.696 361.283 627.62 361.988 627.553 362.761C627.515 363.219 627.476 363.705 627.429 364.201C620.582 363.743 615.289 358.288 614.965 357.954C617.749 360.166 627.753 360.663 627.753 360.663Z" fill="#A77860"/>
<g opacity="0.95">
<path d="M896.098 203.66H906.947L903.626 196.771H892.777L896.098 203.66Z" fill="url(#paint12_linear_11999_32416)"/>
<path d="M891.021 203.66H893.606L890.286 196.771H887.701L891.021 203.66Z" fill="url(#paint13_linear_11999_32416)"/>
<path d="M853.538 195.456H897.468L896.011 192.011H852.08L853.538 195.456Z" fill="url(#paint14_linear_11999_32416)"/>
</g>
<path d="M617.613 85.6221H601.025C600.465 85.6221 600.011 85.1681 600.011 84.6079V81.0249C600.011 80.4647 600.465 80.0107 601.025 80.0107H617.613C618.173 80.0107 618.626 80.4651 618.626 81.0249V84.6079C618.626 85.1681 618.173 85.6221 617.613 85.6221Z" fill="url(#paint15_linear_11999_32416)"/>
<path d="M617.613 99.0774H601.025C600.465 99.0774 600.011 98.6234 600.011 98.0633V94.4802C600.011 93.92 600.465 93.4661 601.025 93.4661H617.613C618.173 93.4661 618.626 93.9204 618.626 94.4802V98.0633C618.626 98.6234 618.173 99.0774 617.613 99.0774Z" fill="url(#paint16_linear_11999_32416)"/>
<path d="M617.613 112.533H601.025C600.465 112.533 600.011 112.079 600.011 111.519V107.936C600.011 107.375 600.465 106.921 601.025 106.921H617.613C618.173 106.921 618.626 107.375 618.626 107.936V111.519C618.626 112.079 618.173 112.533 617.613 112.533Z" fill="url(#paint17_linear_11999_32416)"/>
<path d="M630.596 85.6221H627.327C626.767 85.6221 626.313 85.1681 626.313 84.6079V81.0249C626.313 80.4647 626.767 80.0107 627.327 80.0107H630.596C631.156 80.0107 631.61 80.4651 631.61 81.0249V84.6079C631.61 85.1681 631.156 85.6221 630.596 85.6221Z" fill="url(#paint18_linear_11999_32416)"/>
<path d="M630.596 99.0774H627.327C626.767 99.0774 626.313 98.6234 626.313 98.0633V94.4802C626.313 93.92 626.767 93.4661 627.327 93.4661H630.596C631.156 93.4661 631.61 93.9204 631.61 94.4802V98.0633C631.61 98.6234 631.156 99.0774 630.596 99.0774Z" fill="url(#paint19_linear_11999_32416)"/>
<path d="M630.596 112.533H627.327C626.767 112.533 626.313 112.079 626.313 111.519V107.936C626.313 107.375 626.767 106.921 627.327 106.921H630.596C631.156 106.921 631.61 107.375 631.61 107.936V111.519C631.61 112.079 631.156 112.533 630.596 112.533Z" fill="url(#paint20_linear_11999_32416)"/>
<path d="M546.993 403.815H566.467L560.507 391.45H541.032L546.993 403.815Z" fill="url(#paint21_linear_11999_32416)"/>
<path d="M537.88 403.815H542.521L536.56 391.45H531.92L537.88 403.815Z" fill="url(#paint22_linear_11999_32416)"/>
<defs>
<linearGradient id="paint0_linear_11999_32416" x1="561.986" y1="519.486" x2="547.155" y2="250.725" gradientUnits="userSpaceOnUse">
<stop stop-color="#D1D7E0"/>
<stop offset="1" stop-color="#EBEBFF"/>
</linearGradient>
<linearGradient id="paint1_linear_11999_32416" x1="804.499" y1="594.414" x2="804.499" y2="317.72" gradientUnits="userSpaceOnUse">
<stop stop-color="#D1D7E0"/>
<stop offset="1" stop-color="#EBEBFF"/>
</linearGradient>
<linearGradient id="paint2_linear_11999_32416" x1="179.545" y1="674.361" x2="892.729" y2="674.361" gradientUnits="userSpaceOnUse">
<stop offset="0.535" stop-color="#2195F3"/>
<stop offset="1" stop-color="white"/>
</linearGradient>
<linearGradient id="paint3_linear_11999_32416" x1="548.427" y1="423.549" x2="548.427" y2="221.228" gradientUnits="userSpaceOnUse">
<stop stop-color="#D1D7E0"/>
<stop offset="1" stop-color="#EBEBFF"/>
</linearGradient>
<linearGradient id="paint4_linear_11999_32416" x1="341.215" y1="539.408" x2="295.364" y2="539.408" gradientUnits="userSpaceOnUse">
<stop offset="0.0052" stop-color="#1C9DD7"/>
<stop offset="1" stop-color="#2195F3"/>
</linearGradient>
<linearGradient id="paint5_linear_11999_32416" x1="305.59" y1="577.264" x2="222.235" y2="577.264" gradientUnits="userSpaceOnUse">
<stop offset="0.0052" stop-color="#2A87C5"/>
<stop offset="1" stop-color="#1C9DD7"/>
</linearGradient>
<linearGradient id="paint6_linear_11999_32416" x1="298.465" y1="589.388" x2="235.901" y2="589.388" gradientUnits="userSpaceOnUse">
<stop offset="0.0052" stop-color="#2195F3"/>
<stop offset="1" stop-color="#1C9DD7"/>
</linearGradient>
<linearGradient id="paint7_linear_11999_32416" x1="374.091" y1="525.82" x2="280.141" y2="525.82" gradientUnits="userSpaceOnUse">
<stop offset="0.0052" stop-color="#2A75B7"/>
<stop offset="1" stop-color="#1C9DD7"/>
</linearGradient>
<linearGradient id="paint8_linear_11999_32416" x1="318.152" y1="628.395" x2="263.432" y2="464.266" gradientUnits="userSpaceOnUse">
<stop offset="0.0052" stop-color="#2A75B7"/>
<stop offset="1" stop-color="#1C9DD7"/>
</linearGradient>
<linearGradient id="paint9_linear_11999_32416" x1="275.831" y1="735.588" x2="303.191" y2="617.665" gradientUnits="userSpaceOnUse">
<stop stop-color="#C9C4C1"/>
<stop offset="1" stop-color="#FFF6DE"/>
</linearGradient>
<linearGradient id="paint10_linear_11999_32416" x1="270.543" y1="643.562" x2="337.778" y2="643.562" gradientUnits="userSpaceOnUse">
<stop stop-color="#C9C4C1"/>
<stop offset="1" stop-color="#FFF6DE"/>
</linearGradient>
<linearGradient id="paint11_linear_11999_32416" x1="731.741" y1="252.503" x2="731.741" y2="138.533" gradientUnits="userSpaceOnUse">
<stop stop-color="#D1D7E0"/>
<stop offset="1" stop-color="#EBEBFF"/>
</linearGradient>
<linearGradient id="paint12_linear_11999_32416" x1="892.777" y1="200.216" x2="906.947" y2="200.216" gradientUnits="userSpaceOnUse">
<stop stop-color="#D1D7E0"/>
<stop offset="1" stop-color="#EBEBFF"/>
</linearGradient>
<linearGradient id="paint13_linear_11999_32416" x1="887.701" y1="200.216" x2="893.606" y2="200.216" gradientUnits="userSpaceOnUse">
<stop stop-color="#D1D7E0"/>
<stop offset="1" stop-color="#EBEBFF"/>
</linearGradient>
<linearGradient id="paint14_linear_11999_32416" x1="852.08" y1="193.734" x2="897.468" y2="193.734" gradientUnits="userSpaceOnUse">
<stop stop-color="#D1D7E0"/>
<stop offset="1" stop-color="#EBEBFF"/>
</linearGradient>
<linearGradient id="paint15_linear_11999_32416" x1="600.011" y1="82.8165" x2="618.627" y2="82.8165" gradientUnits="userSpaceOnUse">
<stop stop-color="#D1D7E0"/>
<stop offset="1" stop-color="#EBEBFF"/>
</linearGradient>
<linearGradient id="paint16_linear_11999_32416" x1="600.011" y1="96.2718" x2="618.627" y2="96.2718" gradientUnits="userSpaceOnUse">
<stop stop-color="#D1D7E0"/>
<stop offset="1" stop-color="#EBEBFF"/>
</linearGradient>
<linearGradient id="paint17_linear_11999_32416" x1="600.011" y1="109.727" x2="618.627" y2="109.727" gradientUnits="userSpaceOnUse">
<stop stop-color="#D1D7E0"/>
<stop offset="1" stop-color="#EBEBFF"/>
</linearGradient>
<linearGradient id="paint18_linear_11999_32416" x1="626.313" y1="82.8165" x2="631.61" y2="82.8165" gradientUnits="userSpaceOnUse">
<stop stop-color="#D1D7E0"/>
<stop offset="1" stop-color="#EBEBFF"/>
</linearGradient>
<linearGradient id="paint19_linear_11999_32416" x1="626.313" y1="96.2718" x2="631.61" y2="96.2718" gradientUnits="userSpaceOnUse">
<stop stop-color="#D1D7E0"/>
<stop offset="1" stop-color="#EBEBFF"/>
</linearGradient>
<linearGradient id="paint20_linear_11999_32416" x1="626.313" y1="109.727" x2="631.61" y2="109.727" gradientUnits="userSpaceOnUse">
<stop stop-color="#D1D7E0"/>
<stop offset="1" stop-color="#EBEBFF"/>
</linearGradient>
<linearGradient id="paint21_linear_11999_32416" x1="541.032" y1="397.632" x2="566.467" y2="397.632" gradientUnits="userSpaceOnUse">
<stop stop-color="#D1D7E0"/>
<stop offset="1" stop-color="#EBEBFF"/>
</linearGradient>
<linearGradient id="paint22_linear_11999_32416" x1="531.92" y1="397.632" x2="542.521" y2="397.632" gradientUnits="userSpaceOnUse">
<stop stop-color="#D1D7E0"/>
<stop offset="1" stop-color="#EBEBFF"/>
</linearGradient>
</defs>
</svg>
