<svg width="1379" height="370" viewBox="0 0 1379 370" fill="none" xmlns="http://www.w3.org/2000/svg">
<path d="M533.581 271.529C515.377 271.529 501.166 266.539 490.947 256.559C480.719 246.588 475.604 232.563 475.604 214.482C475.604 204.286 477.544 194.886 481.424 186.295C485.305 177.682 491.274 170.719 499.333 165.392C507.393 160.088 517.317 157.435 529.107 157.435C540.148 157.435 549.699 159.907 557.758 164.852C565.818 169.806 571.923 176.41 576.13 184.677C580.337 192.944 582.399 201.935 582.399 211.69C582.399 214.414 581.469 216.711 579.594 218.568C577.719 220.425 575.223 221.36 572.091 221.36H496.22C497.408 231.411 501.287 239.233 507.86 244.826C514.423 250.427 523.599 253.228 535.39 253.228C541.654 253.228 547.138 252.652 551.84 251.502C556.542 250.351 561.134 248.7 565.612 246.552C566.808 245.976 568.136 245.689 569.637 245.689C572.031 245.689 574.12 246.481 575.906 248.062C577.701 249.636 578.598 251.646 578.598 254.091C578.598 257.247 576.659 259.899 572.778 262.048C566.954 265.204 561.208 267.573 555.528 269.155C549.849 270.737 542.538 271.529 533.581 271.529ZM496.206 205.446H562.232C561.793 198.416 559.89 192.53 556.524 187.779C553.168 183.049 549.031 179.57 544.113 177.341C539.186 175.119 534.184 174.009 529.107 174.009C524.03 174.009 519.033 175.119 514.101 177.341C509.174 179.57 505.069 183.049 501.788 187.779C498.506 192.517 496.641 198.402 496.178 205.446H496.206ZM646.181 271.529C631.259 271.529 617.68 268.296 605.441 261.818C602.898 260.102 601.626 257.736 601.626 254.725C601.626 252.423 602.449 250.413 604.094 248.696C605.731 246.97 607.82 246.107 610.363 246.107C611.7 246.107 613.028 246.394 614.388 246.97C619.166 248.976 623.943 250.553 628.721 251.69C633.489 252.841 638.86 253.417 644.849 253.417C661.415 253.417 669.7 248.323 669.7 238.137C669.7 234.828 667.796 232.315 663.992 230.584C660.187 228.854 653.955 226.92 645.297 224.785C636.49 222.772 629.216 220.689 623.476 218.541C617.726 216.393 612.799 213.129 608.694 208.75C604.589 204.371 602.524 198.595 602.524 191.42C602.524 181.369 606.292 173.187 613.827 166.875C621.362 160.564 632.147 157.408 646.181 157.408C657.671 157.408 668.489 159.202 678.633 162.802C680.727 163.378 682.331 164.452 683.443 166.039C684.565 167.621 685.126 169.272 685.126 170.989C685.126 173.291 684.285 175.3 682.56 177.017C680.839 178.743 678.713 179.606 676.179 179.606C675.431 179.606 674.458 179.462 673.262 179.175C664.605 176.595 656.096 175.304 647.738 175.304C639.688 175.304 633.387 176.703 628.833 179.485C624.279 182.267 622.003 185.904 622.003 190.355C622.003 194.661 624.107 197.817 628.272 199.822C632.451 201.836 638.94 203.774 647.738 205.621C656.545 207.779 663.725 209.896 669.237 211.96C674.752 214.046 679.474 217.31 683.443 221.751C687.398 226.201 689.375 232.158 689.375 239.62C689.375 248.808 685.607 256.415 678.072 262.439C670.537 268.471 659.906 271.475 646.181 271.475V271.529ZM726.756 270.45C723.923 270.45 721.539 269.515 719.603 267.645C717.659 265.783 716.686 263.491 716.686 260.767V121.049C716.686 118.325 717.659 115.992 719.603 114.036C721.539 112.104 723.923 111.137 726.756 111.137C728.111 111.116 729.455 111.363 730.707 111.861C731.959 112.36 733.091 113.1 734.034 114.036C735.011 114.944 735.784 116.034 736.305 117.241C736.826 118.447 737.084 119.743 737.063 121.049V209.114L790.327 161.75C792.571 159.88 794.811 158.945 797.059 158.945C800.491 158.945 802.991 159.88 804.562 161.75C806.133 163.621 806.918 165.846 806.918 168.426C806.918 170.863 805.647 173.304 803.103 175.749L770.876 203.531L811.406 255.183C812.902 257.044 813.65 258.977 813.65 260.982C813.65 263.859 812.678 266.157 810.733 267.86C808.797 269.587 806.335 270.45 803.342 270.45C801.855 270.45 800.365 270.09 798.854 269.371C797.344 268.652 796.091 267.649 795.068 266.363L756.557 215.979L737.091 232.971V260.753C737.091 263.477 736.082 265.77 734.062 267.631C732.053 269.502 729.626 270.436 726.77 270.436L726.756 270.45ZM865.543 271.529C858.98 271.529 852.899 270.234 847.312 267.645C841.722 265.065 837.28 261.297 833.989 256.343C830.707 251.398 829.08 245.693 829.08 239.216C829.08 228.598 833.448 220.132 842.179 213.821C850.912 207.5 863.712 204.34 880.577 204.34H907.644V202.627C907.644 193.151 905.218 186.332 900.351 182.169C895.485 178.005 887.926 175.925 877.632 175.925C871.958 175.925 866.923 176.356 862.528 177.219C858.125 178.082 853.236 179.377 847.859 181.103C846.663 181.391 845.695 181.535 844.956 181.535C842.712 181.535 840.773 180.743 839.136 179.161C837.491 177.579 836.668 175.655 836.668 173.362C836.668 169.488 838.608 166.758 842.488 165.176C855.175 160.015 868.082 157.435 881.194 157.435C891.498 157.435 900.193 159.458 907.279 163.463C914.366 167.469 919.589 172.684 922.945 179.067C926.301 185.45 927.993 192.374 927.993 199.836V260.767C927.993 263.491 926.989 265.783 924.978 267.645C924.02 268.555 922.883 269.272 921.633 269.753C920.383 270.235 919.046 270.472 917.699 270.45C914.867 270.45 912.478 269.515 910.547 267.645C908.612 265.783 907.644 263.491 907.644 260.767V255.183C896.603 266.09 882.574 271.542 865.571 271.542L865.543 271.529ZM873.159 254.307C879.722 254.307 886.066 252.76 892.189 249.667C898.304 246.583 903.451 242.749 907.616 238.164V220.092H883.214C860.683 220.092 849.416 225.76 849.416 237.085C849.416 242.246 851.244 246.39 854.885 249.559C858.541 252.725 864.623 254.307 873.117 254.307H873.159ZM972.314 270.45C969.481 270.45 967.097 269.515 965.162 267.645C963.216 265.783 962.245 263.491 962.245 260.767V121.049C962.222 119.754 962.468 118.468 962.969 117.266C963.47 116.064 964.215 114.971 965.162 114.05C967.097 112.117 969.481 111.15 972.314 111.15C975.305 111.15 977.783 112.094 979.705 113.942C981.65 115.812 982.622 118.18 982.622 121.049V260.767C982.622 263.491 981.612 265.783 979.593 267.645C977.583 269.515 975.157 270.45 972.3 270.45H972.314ZM1047.08 271.529C1040.52 271.529 1034.44 270.234 1028.85 267.645C1023.26 265.065 1018.82 261.297 1015.53 256.343C1012.25 251.398 1010.62 245.693 1010.62 239.216C1010.62 228.598 1014.99 220.132 1023.72 213.821C1032.45 207.5 1045.25 204.34 1062.12 204.34H1089.18V202.627C1089.18 193.151 1086.76 186.332 1081.89 182.169C1077.02 178.005 1069.47 175.925 1059.17 175.925C1053.5 175.925 1048.46 176.356 1044.07 177.219C1039.66 178.082 1034.77 179.377 1029.4 181.103C1028.2 181.391 1027.23 181.535 1026.5 181.535C1024.25 181.535 1022.31 180.743 1020.67 179.161C1019.03 177.579 1018.21 175.655 1018.21 173.362C1018.21 169.488 1020.15 166.758 1024.03 165.176C1036.71 160.015 1049.62 157.435 1062.73 157.435C1073.04 157.435 1081.73 159.458 1088.82 163.463C1095.91 167.469 1101.13 172.684 1104.48 179.067C1107.84 185.45 1109.53 192.374 1109.53 199.836V260.767C1109.53 263.491 1108.53 265.783 1106.52 267.645C1105.56 268.555 1104.42 269.272 1103.17 269.753C1101.92 270.235 1100.58 270.472 1099.24 270.45C1096.41 270.45 1094.02 269.515 1092.09 267.645C1090.15 265.783 1089.18 263.491 1089.18 260.767V255.183C1078.14 266.09 1064.11 271.542 1047.11 271.542L1047.08 271.529ZM1054.7 254.307C1061.26 254.307 1067.6 252.76 1073.73 249.667C1079.84 246.583 1084.99 242.749 1089.16 238.164V220.092H1064.75C1042.22 220.092 1030.95 225.76 1030.95 237.085C1030.95 242.246 1032.78 246.39 1036.42 249.559C1040.08 252.725 1046.16 254.307 1054.66 254.307H1054.7ZM1180.49 271.529C1158.71 271.529 1147.81 262.057 1147.81 243.113V176.356H1131.92C1130.73 176.356 1129.72 175.952 1128.9 175.183C1128.07 174.391 1127.66 173.42 1127.66 172.27C1127.66 170.84 1128.33 169.622 1129.68 168.628L1160.11 139.997C1161.45 138.702 1162.72 138.055 1163.9 138.055C1164.47 138.048 1165.04 138.16 1165.56 138.384C1166.08 138.607 1166.55 138.937 1166.93 139.35C1167.74 140.213 1168.15 141.215 1168.15 142.357V159.579H1193.45C1195.98 159.579 1198.07 160.371 1199.72 161.953C1201.36 163.535 1202.19 165.544 1202.19 167.981C1202.2 169.076 1201.99 170.163 1201.57 171.18C1201.15 172.196 1200.52 173.121 1199.72 173.902C1198.07 175.547 1195.98 176.37 1193.45 176.37H1168.15V241.373C1168.15 246.966 1169.53 250.517 1172.3 252.027C1175.06 253.538 1178.53 254.293 1182.71 254.293C1185.74 254.286 1188.75 253.85 1191.65 252.998L1193.56 252.567C1194.23 252.423 1195.09 252.351 1196.14 252.351C1198.23 252.351 1200.09 253.106 1201.75 254.617C1203.39 256.118 1204.21 257.948 1204.21 260.106C1204.21 263.406 1202.49 265.914 1199.06 267.631C1193.24 270.22 1187.05 271.515 1180.48 271.515L1180.49 271.529ZM1276.07 271.529C1257.87 271.529 1243.66 266.539 1233.44 256.559C1223.21 246.588 1218.1 232.563 1218.1 214.482C1218.1 204.286 1220.04 194.886 1223.92 186.295C1227.8 177.682 1233.77 170.719 1241.83 165.392C1249.89 160.088 1259.81 157.435 1271.6 157.435C1282.64 157.435 1292.19 159.907 1300.25 164.852C1308.31 169.806 1314.41 176.41 1318.62 184.677C1322.83 192.944 1324.89 201.935 1324.89 211.69C1324.89 214.414 1323.96 216.711 1322.09 218.568C1320.21 220.425 1317.71 221.36 1314.58 221.36H1238.71C1239.9 231.411 1243.78 239.233 1250.35 244.826C1256.92 250.427 1266.09 253.228 1277.88 253.228C1284.15 253.228 1289.63 252.652 1294.33 251.502C1299.03 250.351 1303.63 248.7 1308.1 246.552C1309.3 245.976 1310.63 245.689 1312.13 245.689C1314.52 245.689 1316.61 246.481 1318.4 248.062C1320.19 249.636 1321.09 251.646 1321.09 254.091C1321.09 257.247 1319.15 259.899 1315.27 262.048C1309.45 265.204 1303.7 267.573 1298.02 269.155C1292.34 270.737 1285.03 271.529 1276.07 271.529ZM1238.7 205.446H1304.72C1304.29 198.416 1302.38 192.53 1299.02 187.779C1295.66 183.049 1291.52 179.57 1286.6 177.341C1281.68 175.119 1276.68 174.009 1271.6 174.009C1266.52 174.009 1261.53 175.119 1256.59 177.341C1251.67 179.57 1247.56 183.049 1244.28 187.779C1241 192.517 1239.13 198.402 1238.67 205.446H1238.7ZM377.687 180.604L377.407 181.346C377.407 181.346 371.629 226.255 329.136 264.624L326.611 266.781H326.723C316.85 275.682 304.285 285.055 289.798 293.808C321.296 287.928 357.394 276.492 381.768 258.649C395.891 235.642 403.254 211.043 402.047 188.898C401.907 186.336 401.669 184.084 401.374 182.074C395.624 178.231 388.262 175.952 377.701 180.591L377.687 180.604ZM267.233 335.561C251.203 335.966 234.136 332.001 217.811 324.435C199.201 329.25 179.694 331.907 160.032 331.313C165.543 333.673 171.335 335.764 177.464 337.49C266.475 362.655 341.898 318.825 378.487 263.801C375.99 267.483 372.078 272.931 366.566 279.634C361.896 285.298 320.286 334.172 267.233 335.561ZM332.417 164.785C326.331 189.101 306.024 240.402 244.584 243.342C255.733 246.215 267.724 246.147 279.083 243.18C292.967 239.539 347.016 223.598 359.33 165.823C361.013 156.855 369.68 96.2343 300.708 65.0811C323.007 91.9726 340.846 131.164 332.403 164.785H332.417ZM126.906 144.367C129.823 128.992 134.984 113.659 141.996 99.3901C129.795 110.921 120.021 122.991 113.471 133.537C104.594 147.833 98.0446 162.775 93.7812 177.799C102.897 166.916 114.116 155.277 126.906 144.353V144.367Z" fill="#1C9DD7"/>
<path opacity="0.6" d="M279.47 57.2536C287.267 59.5732 294.335 62.203 300.716 65.0756C288.515 50.3756 274.982 39.3169 263.65 34.9338C211.592 14.7314 165.958 50.6723 141.99 99.3711C174.807 68.3528 225.406 41.1645 279.47 57.2401V57.2536Z" fill="url(#paint0_linear_11237_13270)"/>
<path d="M244.387 99.5559L245.789 99.6369C250.109 100.041 254.232 100.824 258.158 101.903C258.173 101.903 258.187 101.903 258.201 101.916C295.575 112.206 314.718 150.736 304.34 180.271C297.272 200.325 274.286 216.279 260.374 221.377C251.721 224.56 242.381 225.099 235.173 219.84C219.41 208.323 233.63 194.081 238.679 188.794C245.298 181.863 257.794 169.105 252.647 158.005C246.687 145.139 227.516 142.402 214.08 156.427C200.645 170.453 193.605 188.484 207.068 213.987C215.343 229.685 229.156 239.341 244.597 243.319C306.051 240.379 326.358 189.064 332.431 164.762C340.845 131.141 323.035 91.9362 300.736 65.0581C294.341 62.1721 287.273 59.5287 279.489 57.2361C225.412 41.1605 174.827 68.3622 142.01 99.3806C134.998 113.649 129.809 128.983 126.92 144.357C158.615 117.25 200.126 94.6874 244.387 99.5559Z" fill="#1C9DD7"/>
<path opacity="0.6" d="M244.387 99.5559L245.789 99.6369C250.109 100.041 254.232 100.824 258.158 101.903C258.173 101.903 258.187 101.903 258.201 101.916C295.575 112.206 314.718 150.736 304.34 180.271C297.272 200.325 274.286 216.279 260.374 221.377C251.721 224.56 242.381 225.099 235.173 219.84C219.41 208.323 233.63 194.081 238.679 188.794C245.298 181.863 257.794 169.105 252.647 158.005C246.687 145.139 227.516 142.402 214.08 156.427C200.645 170.453 193.605 188.484 207.068 213.987C215.343 229.685 229.156 239.341 244.597 243.319C306.051 240.379 326.358 189.064 332.431 164.762C340.845 131.141 323.035 91.9362 300.736 65.0581C294.341 62.1721 287.273 59.5287 279.489 57.2361C225.412 41.1605 174.827 68.3622 142.01 99.3806C134.998 113.649 129.809 128.983 126.92 144.357C158.615 117.25 200.126 94.6874 244.387 99.5559Z" fill="url(#paint1_linear_11237_13270)"/>
<path opacity="0.52" d="M93.7752 177.775C82.3455 191.397 74.1413 203.763 70.0743 211.95C60.4817 231.343 31.5918 306.704 129.621 327.715C139.719 329.873 149.886 331.02 159.998 331.33C98.1508 304.829 75.8523 240.594 93.7612 177.789L93.7752 177.775Z" fill="#1C75BC"/>
<path d="M248.065 298.593L245.683 298.525L247.252 298.62L248.093 298.593H248.065Z" fill="#1C9DD7"/>
<path opacity="0.52" d="M248.065 298.593L245.683 298.525L247.252 298.62L248.093 298.593H248.065Z" fill="#1C75BC"/>
<path d="M289.782 293.832C304.283 285.066 316.849 275.72 326.708 266.806H326.595C305.755 284.877 283.878 294.749 262.743 297.689C271.017 296.907 280.189 295.639 289.782 293.846V293.832Z" fill="#1C9DD7"/>
<path opacity="0.52" d="M289.782 293.832C304.283 285.066 316.849 275.72 326.708 266.806H326.595C305.755 284.877 283.878 294.749 262.743 297.689C271.017 296.907 280.189 295.639 289.782 293.846V293.832Z" fill="#1C75BC"/>
<path d="M140.936 230.571C131.386 215.142 124.57 196.612 124.149 174.953C123.967 164.973 124.935 154.683 126.884 144.38C114.094 155.304 102.903 166.942 93.759 177.826C75.8641 240.631 98.1626 304.866 159.995 331.367C179.671 331.96 199.179 329.303 217.775 324.489C181.915 307.847 149.842 273.78 140.922 230.597L140.936 230.571Z" fill="#1C9DD7"/>
<path opacity="0.52" d="M140.936 230.571C131.386 215.142 124.57 196.612 124.149 174.953C123.967 164.973 124.935 154.683 126.884 144.38C114.094 155.304 102.903 166.942 93.759 177.826C75.8641 240.631 98.1626 304.866 159.995 331.367C179.671 331.96 199.179 329.303 217.775 324.489C181.915 307.847 149.842 273.78 140.922 230.597L140.936 230.571Z" fill="#1C75BC"/>
<path d="M218.011 101.495C218.011 101.495 216.16 101.859 213.074 102.844C222.555 100.052 233.031 98.7172 244.376 99.6073C200.102 94.7522 158.604 117.301 126.895 144.382C124.932 154.672 123.978 164.975 124.161 174.955C124.553 196.627 131.397 215.144 140.948 230.586L140.064 226C122.478 119.675 218.011 101.495 218.011 101.495Z" fill="#1C9DD7"/>
<path opacity="0.6" d="M218.011 101.495C218.011 101.495 216.16 101.859 213.074 102.844C222.555 100.052 233.031 98.7172 244.376 99.6073C200.102 94.7522 158.604 117.301 126.895 144.382C124.932 154.672 123.978 164.975 124.161 174.955C124.553 196.627 131.397 215.144 140.948 230.586L140.064 226C122.478 119.675 218.011 101.495 218.011 101.495Z" fill="url(#paint2_linear_11237_13270)"/>
<path opacity="0.52" d="M218.011 101.495C218.011 101.495 216.16 101.859 213.074 102.844C222.555 100.052 233.031 98.7172 244.376 99.6073C200.102 94.7522 158.604 117.301 126.895 144.382C124.932 154.672 123.978 164.975 124.161 174.955C124.553 196.627 131.397 215.144 140.948 230.586L140.064 226C122.478 119.675 218.011 101.495 218.011 101.495Z" fill="#1C75BC"/>
<path d="M258.212 101.918C258.195 101.918 258.178 101.918 258.161 101.901C258.178 101.918 258.195 101.918 258.212 101.918Z" fill="#1C9DD7"/>
<path opacity="0.6" d="M258.212 101.918C258.195 101.918 258.178 101.918 258.161 101.901C258.178 101.918 258.195 101.918 258.212 101.918Z" fill="url(#paint3_linear_11237_13270)"/>
<path opacity="0.52" d="M258.212 101.918C258.195 101.918 258.178 101.918 258.161 101.901C258.178 101.918 258.195 101.918 258.212 101.918Z" fill="#1C75BC"/>
<path opacity="0.24" d="M381.775 258.678C381.761 258.678 381.761 258.691 381.747 258.691L378.454 263.843L381.775 258.678Z" fill="#262262"/>
<path d="M217.811 324.464C234.121 332.016 251.188 336.008 267.232 335.59C320.271 334.214 361.895 285.34 366.551 279.662C372.049 272.973 375.976 267.525 378.472 263.829C379.602 262.131 380.701 260.414 381.768 258.678C357.365 276.52 321.295 287.943 289.797 293.836C269.069 306.352 244.358 317.599 217.825 324.45L217.811 324.464Z" fill="#1C9DD7"/>
<path opacity="0.24" d="M217.811 324.464C234.121 332.016 251.188 336.008 267.232 335.59C320.271 334.214 361.895 285.34 366.551 279.662C372.049 272.973 375.976 267.525 378.472 263.829C379.602 262.131 380.701 260.414 381.768 258.678C357.365 276.52 321.295 287.943 289.797 293.836C269.069 306.352 244.358 317.599 217.825 324.45L217.811 324.464Z" fill="#262262"/>
<path d="M248.063 298.592L247.222 298.619C246.689 298.633 246.17 298.565 245.651 298.525C231.445 298.026 217.841 294.425 205.402 288.14L205.388 288.167C205.388 288.167 164.717 269.044 140.946 230.581C149.866 273.778 181.939 307.83 217.799 324.445C244.333 317.567 269.043 306.333 289.771 293.832C280.179 295.625 271.021 296.893 262.733 297.675C257.864 298.335 252.951 298.637 248.035 298.579L248.063 298.592Z" fill="#1C9DD7"/>
<path opacity="0.52" d="M248.063 298.592L247.222 298.619C246.689 298.633 246.17 298.565 245.651 298.525C231.445 298.026 217.841 294.425 205.402 288.14L205.388 288.167C205.388 288.167 164.717 269.044 140.946 230.581C149.866 273.778 181.939 307.83 217.799 324.445C244.333 317.567 269.043 306.333 289.771 293.832C280.179 295.625 271.021 296.893 262.733 297.675C257.864 298.335 252.951 298.637 248.035 298.579L248.063 298.592Z" fill="#1C75BC"/>
<path opacity="0.24" d="M248.063 298.592L247.222 298.619C246.689 298.633 246.17 298.565 245.651 298.525C231.445 298.026 217.841 294.425 205.402 288.14L205.388 288.167C205.388 288.167 164.717 269.044 140.946 230.581C149.866 273.778 181.939 307.83 217.799 324.445C244.333 317.567 269.043 306.333 289.771 293.832C280.179 295.625 271.021 296.893 262.733 297.675C257.864 298.335 252.951 298.637 248.035 298.579L248.063 298.592Z" fill="#262262"/>
<path d="M205.386 288.172L205.4 288.145C181.363 276.008 161.687 253.931 150.594 224.989C143.652 206.85 135.111 171.516 163.538 136.358C173.074 124.557 190.184 109.52 213.071 102.817C216.157 101.846 218.008 101.469 218.008 101.469C218.008 101.469 122.461 119.675 140.033 225.974C140.286 227.525 140.594 229.049 140.917 230.559C164.702 269.022 205.372 288.145 205.372 288.145L205.386 288.172Z" fill="#1C9DD7"/>
<path opacity="0.6" d="M205.386 288.172L205.4 288.145C181.363 276.008 161.687 253.931 150.594 224.989C143.652 206.85 135.111 171.516 163.538 136.358C173.074 124.557 190.184 109.52 213.071 102.817C216.157 101.846 218.008 101.469 218.008 101.469C218.008 101.469 122.461 119.675 140.033 225.974C140.286 227.525 140.594 229.049 140.917 230.559C164.702 269.022 205.372 288.145 205.372 288.145L205.386 288.172Z" fill="url(#paint4_linear_11237_13270)"/>
<path opacity="0.52" d="M205.386 288.172L205.4 288.145C181.363 276.008 161.687 253.931 150.594 224.989C143.652 206.85 135.111 171.516 163.538 136.358C173.074 124.557 190.184 109.52 213.071 102.817C216.157 101.846 218.008 101.469 218.008 101.469C218.008 101.469 122.461 119.675 140.033 225.974C140.286 227.525 140.594 229.049 140.917 230.559C164.702 269.022 205.372 288.145 205.372 288.145L205.386 288.172Z" fill="#1C75BC"/>
<path opacity="0.24" d="M205.386 288.172L205.4 288.145C181.363 276.008 161.687 253.931 150.594 224.989C143.652 206.85 135.111 171.516 163.538 136.358C173.074 124.557 190.184 109.52 213.071 102.817C216.157 101.846 218.008 101.469 218.008 101.469C218.008 101.469 122.461 119.675 140.033 225.974C140.286 227.525 140.594 229.049 140.917 230.559C164.702 269.022 205.372 288.145 205.372 288.145L205.386 288.172Z" fill="#262262"/>
<path d="M394.161 148.775C390.964 145.713 386.378 148.02 381.582 152.821L391.819 166.873C391.819 166.873 388.033 166.024 384.05 169.881C383.026 170.879 382.087 172.147 381.245 173.455C381.526 173.185 397.513 156.03 401.342 182.086C409.476 187.48 414.426 195.909 420.695 192.241C427.89 188.033 406.11 160.238 394.133 148.775H394.161Z" fill="#1C9DD7"/>
<path d="M381.266 173.461C379.471 176.293 378.208 179.26 377.689 180.609C388.236 175.983 395.598 178.262 401.362 182.092C397.52 156.064 381.532 173.191 381.266 173.461Z" fill="#1C9DD7"/>
<path d="M381.269 173.448C382.11 172.14 383.036 170.886 384.073 169.875C388.028 166.017 391.843 166.867 391.843 166.867L381.605 152.814C377.3 157.13 372.812 163.469 368.983 169.807L381.269 173.448Z" fill="#1C9DD7"/>
<path d="M368.962 169.837C361.025 183.053 355.878 196.351 360.969 191.873C367.322 186.29 372.847 182.702 377.7 180.585C378.218 179.263 379.481 176.269 381.276 173.437L381.262 173.451L368.962 169.81V169.837Z" fill="#1C9DD7"/>
<defs>
<linearGradient id="paint0_linear_11237_13270" x1="239.517" y1="285.337" x2="218.39" y2="29.8123" gradientUnits="userSpaceOnUse">
<stop stop-color="#2B3990"/>
<stop offset="0.061" stop-color="#294898"/>
<stop offset="0.181" stop-color="#2961A8"/>
<stop offset="0.306" stop-color="#2A75B7"/>
<stop offset="0.433" stop-color="#2A87C5"/>
<stop offset="0.563" stop-color="#2996D1"/>
<stop offset="0.697" stop-color="#28A1DA"/>
<stop offset="0.839" stop-color="#28A8E0"/>
<stop offset="1" stop-color="#27AAE1"/>
</linearGradient>
<linearGradient id="paint1_linear_11237_13270" x1="243.355" y1="285.022" x2="222.236" y2="29.4888" gradientUnits="userSpaceOnUse">
<stop stop-color="#2B3990"/>
<stop offset="0.061" stop-color="#294898"/>
<stop offset="0.181" stop-color="#2961A8"/>
<stop offset="0.306" stop-color="#2A75B7"/>
<stop offset="0.433" stop-color="#2A87C5"/>
<stop offset="0.563" stop-color="#2996D1"/>
<stop offset="0.697" stop-color="#28A1DA"/>
<stop offset="0.839" stop-color="#28A8E0"/>
<stop offset="1" stop-color="#27AAE1"/>
</linearGradient>
<linearGradient id="paint2_linear_11237_13270" x1="197.687" y1="288.819" x2="176.563" y2="33.2959" gradientUnits="userSpaceOnUse">
<stop stop-color="#2B3990"/>
<stop offset="0.061" stop-color="#294898"/>
<stop offset="0.181" stop-color="#2961A8"/>
<stop offset="0.306" stop-color="#2A75B7"/>
<stop offset="0.433" stop-color="#2A87C5"/>
<stop offset="0.563" stop-color="#2996D1"/>
<stop offset="0.697" stop-color="#28A1DA"/>
<stop offset="0.839" stop-color="#28A8E0"/>
<stop offset="1" stop-color="#27AAE1"/>
</linearGradient>
<linearGradient id="paint3_linear_11237_13270" x1="264.017" y1="166.989" x2="253.264" y2="36.7991" gradientUnits="userSpaceOnUse">
<stop stop-color="#2B3990"/>
<stop offset="0.061" stop-color="#294898"/>
<stop offset="0.181" stop-color="#2961A8"/>
<stop offset="0.306" stop-color="#2A75B7"/>
<stop offset="0.433" stop-color="#2A87C5"/>
<stop offset="0.563" stop-color="#2996D1"/>
<stop offset="0.697" stop-color="#28A1DA"/>
<stop offset="0.839" stop-color="#28A8E0"/>
<stop offset="1" stop-color="#27AAE1"/>
</linearGradient>
<linearGradient id="paint4_linear_11237_13270" x1="190.02" y1="289.452" x2="168.896" y2="33.9315" gradientUnits="userSpaceOnUse">
<stop stop-color="#2B3990"/>
<stop offset="0.061" stop-color="#294898"/>
<stop offset="0.181" stop-color="#2961A8"/>
<stop offset="0.306" stop-color="#2A75B7"/>
<stop offset="0.433" stop-color="#2A87C5"/>
<stop offset="0.563" stop-color="#2996D1"/>
<stop offset="0.697" stop-color="#28A1DA"/>
<stop offset="0.839" stop-color="#28A8E0"/>
<stop offset="1" stop-color="#27AAE1"/>
</linearGradient>
</defs>
</svg>
