<svg width="112" height="28" viewBox="0 0 112 28" fill="none" xmlns="http://www.w3.org/2000/svg">
<g clip-path="url(#clip0_29_118)">
<path d="M28.6228 5.27278C28.6076 4.91766 28.5582 4.56475 28.4755 4.21877C28.1942 3.03956 27.5199 1.98679 26.5601 1.22799C25.6162 0.460259 24.4363 0.0285155 23.2117 0.00269882H5.79955C5.35053 -0.0105163 4.90137 0.0248296 4.46018 0.1081C3.41152 0.334099 2.45264 0.856072 1.70103 1.61007C1.15388 2.1306 0.732747 2.7655 0.468788 3.46778C0.244866 3.98572 0.117819 4.53916 0.0937576 5.1015H0V22.9671H0.0937576C0.113237 23.5201 0.235816 24.0649 0.455394 24.5744C0.954848 25.8322 1.90875 26.8644 3.13418 27.473C3.6423 27.7327 4.18947 27.9107 4.75484 28C4.77317 27.9896 4.79396 27.9841 4.81512 27.9841C4.83628 27.9841 4.85707 27.9896 4.87539 28H23.7608H23.8546H24.1894C25.1968 27.7891 26.1253 27.3083 26.8722 26.6108C27.6192 25.9132 28.1555 25.0261 28.4219 24.0475C28.5677 23.5106 28.6353 22.9561 28.6228 22.4006V5.27278ZM22.2473 18.8432C22.2256 18.8983 22.2256 18.9594 22.2473 19.0145C22.2144 19.2256 22.1605 19.433 22.0866 19.6338L21.8455 20.5428L21.7785 20.7404C21.7785 20.9381 21.6178 21.0962 21.3767 21.1225H21.283C21.2469 21.1442 21.2069 21.1586 21.1652 21.165C21.1234 21.1715 21.0808 21.1697 21.0397 21.1599C20.9987 21.1501 20.96 21.1325 20.9259 21.108C20.8918 21.0835 20.8629 21.0526 20.8409 21.0171C20.718 20.8627 20.6384 20.6792 20.6102 20.4849C20.582 20.2907 20.6061 20.0926 20.6802 19.9104L20.7606 19.726C20.7807 19.6393 20.7807 19.5492 20.7606 19.4625C20.6942 19.2748 20.6942 19.0705 20.7606 18.8828C20.7829 18.8274 20.8172 18.7774 20.8612 18.7365C20.9051 18.6955 20.9576 18.6645 21.0151 18.6456L21.3499 18.5007C21.3961 18.4843 21.438 18.458 21.4727 18.4239C21.5075 18.3897 21.5341 18.3485 21.5508 18.303C21.6312 18.1318 21.7651 18 21.8589 17.8287C21.9526 17.6575 21.9393 17.6575 22.0464 17.6575C22.1535 17.6575 22.2072 17.7629 22.2607 17.8551C22.2806 17.9285 22.2806 18.0057 22.2607 18.0791V18.3426C22.3146 18.506 22.3099 18.6828 22.2473 18.8432ZM22.6224 12.0712C22.5706 12.2456 22.4988 12.4136 22.408 12.5718C22.2607 12.8485 22.0866 13.112 21.9393 13.3887C21.7859 13.6426 21.5807 13.8624 21.3365 14.0343C20.8695 14.3728 20.4467 14.7667 20.0775 15.2069C19.8889 15.4436 19.7272 15.6998 19.5953 15.971C19.5753 16.0051 19.5648 16.0437 19.5648 16.083C19.5648 16.1223 19.5753 16.161 19.5953 16.195C19.6589 16.3745 19.7038 16.5599 19.7293 16.7484C19.7451 16.879 19.8067 17.0001 19.9034 17.0909C19.9412 17.1339 19.9691 17.1844 19.9853 17.239C20.0015 17.2935 20.0055 17.3509 19.9971 17.4072C19.9703 17.648 19.9703 17.8909 19.9971 18.1318C20.0079 18.3234 19.9548 18.5132 19.8461 18.6724C19.7373 18.8317 19.5787 18.9518 19.3944 19.0145C19.195 19.0639 19.0225 19.1864 18.9123 19.3571C18.9123 19.4229 18.8051 19.4361 18.7515 19.4756C18.678 19.5124 18.6202 19.5737 18.5883 19.6484C18.5564 19.7233 18.5525 19.8068 18.5774 19.8841C18.5774 19.9763 18.5774 20.0817 18.6444 20.1871C18.6977 20.4035 18.6977 20.6294 18.6444 20.8459C18.6314 20.8968 18.6046 20.9433 18.5669 20.9805C18.5291 21.0176 18.4818 21.0439 18.43 21.0567C18.3449 21.0734 18.2633 21.1047 18.189 21.1489C18.1466 21.1611 18.1098 21.1875 18.0853 21.2237C18.0608 21.2598 18.0501 21.3034 18.055 21.3465C18.0552 21.6623 17.9466 21.9688 17.7469 22.2161C17.5024 22.5632 17.2339 22.8934 16.9433 23.2042C16.8119 23.3516 16.6488 23.4683 16.4657 23.5458C16.2826 23.6233 16.0843 23.6597 15.8852 23.6522C15.7026 23.6337 15.5186 23.6337 15.336 23.6522L14.9744 23.7181C14.8811 23.7308 14.7864 23.7308 14.6931 23.7181C14.6316 23.7198 14.5702 23.7096 14.5127 23.6881C14.4551 23.6665 14.4025 23.634 14.3577 23.5924C14.3129 23.5507 14.2769 23.5009 14.2517 23.4456C14.2266 23.3903 14.2127 23.3307 14.211 23.2701C14.2044 23.2397 14.2044 23.2083 14.211 23.1779C14.2298 22.9872 14.1926 22.7951 14.1038 22.6245C13.9736 22.3181 13.8024 22.0301 13.5948 21.7682C13.5051 21.6622 13.4451 21.535 13.4207 21.3992L13.3002 20.6219C13.2074 20.3122 13.0576 20.0219 12.8582 19.7655L12.6573 19.4493C12.6063 19.36 12.5743 19.2613 12.5635 19.1594C12.5071 18.7078 12.5862 18.2498 12.7912 17.8419L12.9519 17.6048C12.9947 17.5376 13.0174 17.46 13.0174 17.3808C13.0174 17.3015 12.9947 17.2239 12.9519 17.1568C12.9002 17.0033 12.8687 16.8439 12.8582 16.6825C12.7928 16.4016 12.6985 16.1278 12.5769 15.8656C12.4765 15.7132 12.3598 15.5719 12.2286 15.444L12.0546 15.2859C11.9667 15.2054 11.9047 15.1014 11.8762 14.9867C11.8476 14.872 11.8538 14.7516 11.8938 14.6404C11.8938 14.4822 11.9742 14.3241 12.0009 14.166C12.0075 14.0827 12.0075 13.999 12.0009 13.9157C12.0016 13.8452 11.9762 13.7769 11.9293 13.7235C11.8825 13.6702 11.8175 13.6354 11.7465 13.6259H11.2509C11.1982 13.631 11.145 13.6213 11.0977 13.598C11.0503 13.5747 11.0105 13.5387 10.983 13.4941C10.9468 13.4444 10.9155 13.3914 10.8892 13.336C10.8526 13.27 10.7941 13.2183 10.7234 13.1895C10.6527 13.1608 10.5742 13.1566 10.5008 13.1779C10.3324 13.1882 10.1659 13.2191 10.0052 13.2702L9.57668 13.4019C9.40726 13.4715 9.22425 13.503 9.0409 13.4941H8.69268C8.47061 13.4716 8.24633 13.4987 8.03637 13.5732C7.98674 13.5985 7.93159 13.6118 7.87565 13.6118C7.81965 13.6118 7.76456 13.5985 7.71492 13.5732C7.31485 13.3767 6.93763 13.1382 6.58981 12.8617C6.47849 12.7744 6.39105 12.6612 6.33533 12.5323C6.27371 12.4142 6.19224 12.3073 6.09422 12.2161C5.94692 12.0712 5.81297 11.9263 5.66563 11.7945C5.58318 11.7476 5.51262 11.6829 5.45926 11.6053C5.4059 11.5278 5.37113 11.4393 5.35757 11.3466C5.3569 11.2917 5.34464 11.2377 5.32159 11.1878C5.29853 11.1378 5.26517 11.0932 5.22363 11.0567C5.21223 11.0468 5.2031 11.0346 5.19685 11.021C5.19059 11.0074 5.18736 10.9926 5.18736 10.9776C5.18736 10.9627 5.19059 10.9479 5.19685 10.9343C5.2031 10.9207 5.21223 10.9085 5.22363 10.8986L5.35757 10.7668C5.48583 10.516 5.56317 10.2431 5.58527 9.96313C5.61179 9.78354 5.58383 9.60019 5.5049 9.43617C5.46503 9.36561 5.4441 9.28626 5.4441 9.20556C5.4441 9.12486 5.46503 9.04551 5.5049 8.97501C5.65777 8.71214 5.79205 8.4392 5.90672 8.15814C5.92065 8.06938 5.95254 7.98426 6.00047 7.90782C6.10764 7.76289 6.22817 7.63112 6.34869 7.48619C6.38099 7.44783 6.41686 7.41255 6.45586 7.3808L6.92467 7.05141C7.00318 7.00846 7.06828 6.94529 7.11314 6.86874C7.15794 6.79213 7.18079 6.70499 7.17914 6.61662C7.16607 6.53369 7.16607 6.4493 7.17914 6.3663C7.24651 6.1287 7.39262 5.92004 7.59434 5.77343L7.82203 5.58898C7.91044 5.52116 7.98344 5.43589 8.03637 5.33865C8.04973 5.2868 8.07236 5.23771 8.10334 5.19373C8.11841 5.1769 8.13694 5.16343 8.15775 5.1542C8.1785 5.14497 8.20107 5.1402 8.22387 5.1402C8.24667 5.1402 8.26924 5.14497 8.28999 5.1542C8.3108 5.16343 8.32933 5.1769 8.3444 5.19373C8.56004 5.28262 8.79678 5.31002 9.02748 5.27278C9.14983 5.27265 9.26991 5.24084 9.37576 5.18055C9.82644 4.93183 10.3324 4.79608 10.8491 4.7853H11.0366C11.1737 4.759 11.3147 4.759 11.4518 4.7853C11.6577 4.78751 11.8621 4.75176 12.0546 4.6799C12.1009 4.64569 12.1573 4.6272 12.2153 4.6272C12.2732 4.6272 12.3296 4.64569 12.376 4.6799C12.376 4.6799 12.5501 4.6799 12.5769 4.7853C12.6037 4.8907 12.5769 4.90387 12.4965 4.96975C12.4822 5.01254 12.4822 5.05871 12.4965 5.1015C12.5239 5.13512 12.5435 5.17408 12.5544 5.21577C12.5652 5.25748 12.5669 5.30096 12.5592 5.34334C12.5517 5.38572 12.535 5.42602 12.5103 5.46156C12.4856 5.49711 12.4535 5.52707 12.4162 5.54946C12.4118 5.58005 12.4118 5.61109 12.4162 5.64166C12.4162 5.64166 12.4162 5.64166 12.4162 5.70758H12.4965C12.662 5.79051 12.8375 5.8525 13.0189 5.89204L13.4341 5.97106C13.4871 5.97856 13.5373 5.9995 13.5795 6.03182C13.6218 6.06418 13.6548 6.1068 13.6752 6.15552C13.6949 6.19847 13.7245 6.23638 13.7617 6.26612C13.799 6.29586 13.8427 6.31663 13.8895 6.32677L14.3985 6.52445C14.4428 6.53206 14.4881 6.53206 14.5324 6.52445C14.6128 6.52445 14.653 6.52445 14.6931 6.419C14.7061 6.34491 14.7061 6.26914 14.6931 6.19506C14.6957 6.13284 14.7176 6.07292 14.7559 6.02347C14.7942 5.97397 14.8472 5.93723 14.9074 5.91836H15.1351C15.2036 5.90206 15.2753 5.90318 15.3432 5.92161C15.4112 5.94003 15.4732 5.9752 15.5235 6.02375C15.6025 6.09347 15.7001 6.13922 15.8048 6.15552L16.7692 6.39268C16.9196 6.45204 17.0876 6.45204 17.238 6.39268C17.3943 6.34049 17.5638 6.34049 17.7202 6.39268H18.2157C18.3497 6.39268 18.4434 6.39268 18.4568 6.57714C18.4702 6.76155 18.4568 6.73523 18.4568 6.80109C18.5232 6.99334 18.5232 7.20177 18.4568 7.39396C18.4328 7.43103 18.4007 7.4625 18.3631 7.48619C18.2961 7.48619 18.2961 7.56526 18.3631 7.63112C18.43 7.69703 18.4702 7.90782 18.5372 8.03958C18.6558 8.20887 18.7462 8.39563 18.8051 8.59292C18.8339 8.66796 18.8797 8.73555 18.939 8.79054C19.1274 8.97568 19.2335 9.22684 19.2337 9.48886C19.2319 9.562 19.2452 9.63474 19.2728 9.70273C19.3004 9.77066 19.3418 9.83237 19.3944 9.88411C19.5465 10.0216 19.6537 10.2005 19.7024 10.3979C19.7565 10.5531 19.8598 10.687 19.9971 10.78C20.2115 10.9513 20.399 11.1489 20.5999 11.3334C20.6815 11.4121 20.7375 11.513 20.7606 11.6232C20.7606 11.834 20.9079 11.9131 21.1356 11.8736C21.3188 11.8787 21.5021 11.8744 21.6848 11.8604C21.9197 11.8362 22.1498 11.7784 22.3679 11.6891H22.4482C22.4649 11.6831 22.4827 11.6807 22.5005 11.6822C22.5182 11.6837 22.5354 11.6891 22.5507 11.6979C22.5661 11.7067 22.5793 11.7188 22.5893 11.7332C22.5994 11.7476 22.6061 11.764 22.6089 11.7813C22.6395 11.8751 22.6442 11.9751 22.6224 12.0712Z" fill="#244BC5"/>
<path d="M112 1.96611C111.903 1.7307 111.744 1.52495 111.539 1.36986C111.334 1.21477 111.091 1.11591 110.835 1.08337C110.82 1.09036 110.804 1.094 110.788 1.094C110.771 1.094 110.756 1.09036 110.741 1.08337H110.58C110.566 1.09036 110.55 1.094 110.533 1.094C110.517 1.094 110.501 1.09036 110.487 1.08337C110.242 1.11584 110.011 1.21423 109.82 1.36769C109.628 1.52115 109.483 1.72369 109.402 1.95294L108.665 3.77112L107.607 6.30074C107.219 7.23617 106.83 8.17165 106.455 9.10707L105.116 12.1769L103.776 15.2862C103.776 15.2862 103.776 15.3653 103.682 15.3653C103.625 15.2591 103.576 15.1491 103.535 15.0359C102.999 13.7184 102.477 12.4009 101.955 11.1756C101.432 9.95026 101.004 8.61959 100.454 7.35478C100.374 7.14265 100.28 6.93578 100.174 6.73553C100.087 6.55739 99.958 6.40289 99.7966 6.28568C99.6357 6.16847 99.4475 6.0922 99.2491 6.06358C98.8915 6.0175 98.5293 6.10189 98.2309 6.30074C98.1075 6.3675 98.0017 6.46236 97.9233 6.57744C97.78 6.76605 97.6908 6.98898 97.6646 7.22301C97.639 7.45703 97.6771 7.69363 97.7755 7.90811C97.9096 8.26388 98.0569 8.61959 98.2041 8.9753L99.7312 12.6776C100.119 13.6393 100.521 14.6011 100.923 15.5761C101.432 16.8277 101.941 18.0662 102.464 19.3178C102.535 19.5151 102.634 19.7014 102.758 19.8712C102.957 20.1221 103.242 20.2937 103.56 20.3542C103.877 20.4148 104.206 20.3602 104.486 20.2006C104.783 20.0225 105.013 19.7543 105.142 19.4364C105.705 18.053 106.268 16.6828 106.843 15.2994C107.419 13.916 107.982 12.4931 108.558 11.0965L109.763 8.19797C110.058 7.44701 110.366 6.70921 110.674 5.97135L111.799 3.20458L112 2.70392V1.97929V1.96611Z" fill="#244BC5"/>
<path d="M59.82 17.2907C59.4851 16.5793 59.1639 15.881 58.829 15.1827C58.36 14.1946 57.8915 13.2064 57.4896 12.2183C57.0876 11.2301 56.6055 10.3606 56.1501 9.42515L54.8107 6.47389C54.4223 5.6307 54.0205 4.78749 53.6187 3.94428L53.1365 2.92979C52.9892 2.61358 52.8552 2.2842 52.6945 1.98117C52.607 1.76532 52.4631 1.57607 52.2773 1.43261C52.0914 1.28915 51.8703 1.19659 51.6364 1.16431H51.5426H51.2212C51.2045 1.17243 51.1862 1.17666 51.1676 1.17666C51.149 1.17666 51.1307 1.17243 51.114 1.16431C51.0304 1.18014 50.952 1.21638 50.8863 1.26971H50.7926C50.5351 1.41033 50.3289 1.62692 50.2032 1.88894L49.5737 3.20646L47.8325 6.76375C47.2967 7.89685 46.7744 9.0299 46.2386 10.1498C45.7029 11.2697 45.2207 12.2973 44.7251 13.3777C44.6133 13.5912 44.5149 13.8112 44.4304 14.0365C44.3389 14.2618 44.3205 14.5096 44.3781 14.7455C44.4357 14.9815 44.5663 15.1941 44.7519 15.354C44.8949 15.4905 45.0652 15.5961 45.252 15.6641C45.4388 15.7321 45.638 15.7612 45.8368 15.7492C46.1414 15.7437 46.4329 15.6263 46.6538 15.4199C46.8101 15.2629 46.9371 15.08 47.0288 14.8797L47.8325 13.1274L49.4264 9.74138L50.7658 6.73743L50.9533 6.39488C51.1006 6.21041 51.1408 5.97325 51.2747 5.77563C51.2972 5.78167 51.3176 5.79338 51.334 5.80951C51.3504 5.82569 51.3623 5.84579 51.3685 5.86786L51.5828 6.3158L53.0963 9.51738L54.0607 11.5727L55.7483 15.1432C56.1367 15.9996 56.5386 16.8296 56.9404 17.686L57.3423 18.5556C57.5163 18.9245 57.6772 19.2934 57.8648 19.6491C57.9734 19.9046 58.1616 20.1197 58.4021 20.2641C58.6426 20.4083 58.9234 20.4744 59.2037 20.4528C59.4783 20.4373 59.741 20.3392 59.9564 20.1718C60.1719 20.0046 60.3299 19.776 60.4095 19.5174C60.5085 19.1608 60.4704 18.7808 60.3021 18.4502C60.1816 18.0549 60.0076 17.6728 59.82 17.2907Z" fill="#244BC5"/>
<path d="M93.1681 13.7446C92.9958 13.0309 92.6246 12.3786 92.097 11.8605C91.6655 11.4347 91.168 11.0789 90.6234 10.8065C90.1583 10.575 89.6745 10.3812 89.177 10.2268C88.5204 9.9896 87.8376 9.81836 87.1679 9.64705C86.3418 9.45788 85.5277 9.22033 84.73 8.93563C84.3491 8.79204 83.9813 8.6157 83.6316 8.40861C83.3115 8.22376 83.0477 7.95725 82.8687 7.63727C82.6896 7.31723 82.6014 6.95558 82.614 6.5904C82.6231 6.35884 82.6594 6.12902 82.7208 5.9053C82.8573 5.36012 83.203 4.88799 83.6856 4.5878C84.099 4.33444 84.5515 4.14764 85.0251 4.03444C85.597 3.88504 86.1877 3.8141 86.7796 3.82364C87.1349 3.82364 87.4754 3.68483 87.7267 3.43774C87.9774 3.19066 88.119 2.85555 88.119 2.50612C88.1219 2.18642 88.007 1.87648 87.795 1.63408C87.5829 1.39167 87.289 1.23334 86.9672 1.1886H86.6454C85.8438 1.11784 85.0365 1.16222 84.2479 1.32035C83.0989 1.59865 82.0534 2.19267 81.2341 3.03313C80.4342 3.85865 79.9595 4.9377 79.8947 6.0766C79.8521 6.60972 79.8839 7.14609 79.9885 7.67081C80.0908 8.22521 80.3046 8.75385 80.6184 9.22548C81.0335 9.83432 81.5826 10.3432 82.2257 10.7142C82.8323 11.0756 83.4798 11.3673 84.1541 11.5838C85.0785 11.8869 86.0428 12.1108 86.9803 12.3744C87.5994 12.5233 88.2083 12.7125 88.8018 12.9409C89.2032 13.0973 89.5818 13.3055 89.9269 13.5601C90.2118 13.7871 90.4176 14.0956 90.5165 14.4428C90.6365 14.9513 90.583 15.4844 90.3653 15.9604C90.1475 16.4364 89.7774 16.829 89.3106 17.0779C88.579 17.4726 87.7614 17.6894 86.9268 17.7103C86.584 17.7429 86.2383 17.7429 85.8955 17.7103C85.4845 17.6622 85.0774 17.5873 84.6766 17.4863C84.062 17.325 83.4815 17.0574 82.9619 16.6958C82.7163 16.5195 82.4877 16.321 82.2791 16.1029C82.1319 15.9371 81.926 15.8333 81.7032 15.813C81.3882 15.751 81.0619 15.7831 80.7657 15.9053C80.5906 15.9726 80.4342 16.079 80.3086 16.2163C80.1829 16.3536 80.092 16.5177 80.0425 16.6958C79.9731 16.9258 79.9686 17.17 80.03 17.4022C80.0914 17.6344 80.2159 17.8457 80.3904 18.0133C80.9084 18.5437 81.5099 18.9886 82.1716 19.3309C82.934 19.724 83.751 20.0037 84.5964 20.1609C85.1945 20.288 85.8057 20.3499 86.418 20.3453H86.5249C87.0991 20.3494 87.6727 20.3053 88.2395 20.2136C89.1526 20.0408 90.0276 19.7107 90.8246 19.2386C91.5347 18.8067 92.1266 18.2095 92.5473 17.4994C92.9674 16.7895 93.2039 15.9886 93.2352 15.1675V14.6537C93.2437 14.3492 93.2216 14.0446 93.1681 13.7446Z" fill="#244BC5"/>
<path d="M74.0416 12.414C74.6886 12.0168 75.2452 11.4919 75.6756 10.8725C76.1497 10.145 76.4476 9.32009 76.546 8.46144C76.5932 7.98382 76.5932 7.50289 76.546 7.02532C76.5341 6.58225 76.48 6.1412 76.3857 5.70781C76.2253 5.02978 75.9388 4.38662 75.5414 3.81058C75.1235 3.21452 74.5914 2.70435 73.9745 2.30861C72.8017 1.47971 71.4002 1.02031 69.9562 0.991089C69.7418 0.991089 69.5144 0.991089 69.3001 0.991089C68.7697 1.04056 68.2455 1.13758 67.7332 1.28094C66.433 1.62554 65.2761 2.36289 64.4244 3.38898C64.0981 3.79331 63.8235 4.23585 63.6074 4.70649C63.2601 5.54134 63.1003 6.44024 63.139 7.34156C63.1418 7.55038 63.1952 7.75551 63.2947 7.94003C63.3942 8.12455 63.5364 8.2832 63.7103 8.40287C63.8843 8.5226 64.085 8.59988 64.2953 8.62832C64.5057 8.65683 64.72 8.63577 64.9202 8.56684C65.1356 8.50171 65.3306 8.38428 65.4876 8.22535C65.6445 8.06648 65.7576 7.87126 65.8179 7.65773C65.8372 7.4694 65.8372 7.27956 65.8179 7.09118C65.823 6.5477 65.9509 6.01212 66.1925 5.52336C66.4273 5.08427 66.7736 4.71217 67.1971 4.44299C67.4939 4.25235 67.8077 4.08915 68.1346 3.9555C68.6321 3.77023 69.1568 3.66782 69.6884 3.65248C70.0534 3.6528 70.4173 3.69256 70.7732 3.77105C71.3752 3.90617 71.9466 4.1472 72.4611 4.48252C72.879 4.76915 73.2121 5.16027 73.4253 5.61558C73.6505 6.1002 73.7733 6.62453 73.7869 7.15709C73.8369 7.67828 73.7966 8.20407 73.6664 8.71176C73.526 9.24791 73.1928 9.7159 72.7289 10.0293C72.0762 10.4483 71.3627 10.7681 70.6128 10.9779C69.9829 11.1755 69.2734 11.3468 68.7242 11.5576C67.9356 11.8007 67.1766 12.1277 66.4603 12.5326C65.5569 13.0485 64.7922 13.77 64.2305 14.6365C63.6694 15.503 63.3271 16.4893 63.2328 17.5128C63.2328 17.7499 63.2328 17.9871 63.1657 18.2374C63.139 18.5311 63.139 18.8265 63.1657 19.1201C63.1657 19.4696 63.3067 19.8047 63.558 20.0518C63.8093 20.2989 64.1498 20.4377 64.5051 20.4377C64.7627 20.4372 65.0145 20.3635 65.2311 20.2256C65.4472 20.0878 65.6183 19.8915 65.7241 19.6603C65.7735 19.5372 65.8093 19.4091 65.8309 19.2783C65.8446 19.0281 65.8446 18.7774 65.8309 18.5273C65.8395 18.0319 65.9157 17.5399 66.0589 17.0648C66.2215 16.4917 66.5251 15.9668 66.943 15.5365C67.2807 15.2008 67.6752 14.9245 68.1079 14.7197C68.7594 14.4106 69.436 14.155 70.1307 13.9555C70.7732 13.7447 71.4696 13.5734 72.0728 13.3494C72.7602 13.1063 73.4202 12.7928 74.0416 12.414Z" fill="#244BC5"/>
<path d="M91.7485 5.65478C92.1038 5.65478 92.4444 5.51595 92.6957 5.26886C92.947 5.02178 93.088 4.68667 93.088 4.33724C93.088 3.98781 92.947 3.65269 92.6957 3.40561C92.4444 3.15853 92.1038 3.01971 91.7485 3.01971C91.3937 3.01971 91.0526 3.15853 90.8013 3.40561C90.5506 3.65269 90.4091 3.98781 90.4091 4.33724C90.4091 4.68667 90.5506 5.02178 90.8013 5.26886C91.0526 5.51595 91.3937 5.65478 91.7485 5.65478Z" fill="#244BC5"/>
<path d="M96.9584 3.75791C97.3137 3.75791 97.6543 3.6191 97.9056 3.37201C98.1569 3.12493 98.2979 2.78981 98.2979 2.44038C98.2979 2.17981 98.2194 1.92508 98.0722 1.70841C97.9249 1.49174 97.7157 1.32288 97.4712 1.22316C97.2262 1.12344 96.9573 1.09734 96.6975 1.14818C96.4376 1.19902 96.1989 1.3245 96.0118 1.50876C95.8242 1.69301 95.6969 1.92778 95.6451 2.18335C95.5934 2.43892 95.6201 2.70383 95.7213 2.94458C95.8225 3.18532 95.9942 3.39109 96.2148 3.53586C96.4348 3.68063 96.6935 3.75791 96.9584 3.75791Z" fill="#244BC5"/>
<path d="M75.26 17.6836C74.9052 17.6836 74.5641 17.8224 74.3134 18.0695C74.0621 18.3166 73.9205 18.6517 73.9205 19.0011C73.9205 19.3505 74.0621 19.6857 74.3134 19.9327C74.5641 20.1798 74.9052 20.3186 75.26 20.3186C75.6153 20.3186 75.9559 20.1798 76.2072 19.9327C76.4584 19.6857 76.5994 19.3505 76.5994 19.0011C76.5994 18.6517 76.4584 18.3166 76.2072 18.0695C75.9559 17.8224 75.6153 17.6836 75.26 17.6836Z" fill="#244BC5"/>
<path d="M43.4494 20.3457C43.8046 20.3457 44.1453 20.207 44.3964 19.9599C44.6476 19.7128 44.7887 19.3776 44.7887 19.0282C44.7887 18.6788 44.6476 18.3437 44.3964 18.0966C44.1453 17.8495 43.8046 17.7107 43.4494 17.7107C43.0941 17.7107 42.7534 17.8495 42.5023 18.0966C42.2511 18.3437 42.11 18.6788 42.11 19.0282C42.11 19.3776 42.2511 19.7128 42.5023 19.9599C42.7534 20.207 43.0941 20.3457 43.4494 20.3457Z" fill="#244BC5"/>
<path d="M67.4786 23.3365H67.1307C66.6969 23.4207 66.308 23.6538 66.0334 23.9941C65.7588 24.3344 65.6155 24.7599 65.6303 25.1943C65.6224 25.4372 65.6644 25.6793 65.7537 25.9058C65.8435 26.1323 65.9794 26.3385 66.1528 26.5118C66.3205 26.6956 66.528 26.8405 66.7594 26.9361C66.9908 27.0318 67.2415 27.0759 67.4922 27.0651C67.7481 27.0744 68.0028 27.0244 68.2353 26.9191C68.4678 26.8138 68.6725 26.6562 68.8317 26.4591C69.0978 26.1638 69.2626 25.794 69.3036 25.4016C69.3445 25.0092 69.2587 24.6141 69.0591 24.272C68.9124 23.9851 68.6861 23.745 68.4064 23.5794C68.1267 23.4139 67.8055 23.3297 67.4786 23.3365ZM67.7737 26.604H67.6799H67.3854C67.1267 26.5987 66.8754 26.5199 66.6616 26.3774C66.4479 26.2347 66.2801 26.0344 66.1795 25.8003C66.0641 25.5755 66.0095 25.3252 66.0215 25.0736C66.0328 24.822 66.1107 24.5776 66.2466 24.3642C66.3637 24.1478 66.54 23.9678 66.7549 23.8444C66.9703 23.7211 67.2165 23.6592 67.4655 23.6659C67.66 23.6726 67.8504 23.7209 68.0238 23.8074C68.1972 23.8938 68.3496 24.0164 68.4701 24.1665C68.6316 24.3549 68.7436 24.5794 68.7964 24.8203C68.8487 25.0612 68.8402 25.3112 68.7714 25.5481C68.7026 25.7851 68.5759 26.0017 68.4013 26.1789C68.2273 26.3561 68.0119 26.4886 67.7737 26.5645V26.604Z" fill="#244BC5"/>
<path d="M86.0023 23.3357C85.8738 23.3155 85.7425 23.3155 85.614 23.3357C85.2479 23.4216 84.9198 23.6201 84.6765 23.9022C84.5133 24.0802 84.3877 24.2884 84.3075 24.5146C84.2268 24.7408 84.1927 24.9805 84.2075 25.2197C84.2308 25.6297 84.3854 26.0219 84.6498 26.3396C84.8652 26.6009 85.1541 26.794 85.4804 26.8947C85.8067 26.9955 86.1558 26.9995 86.4844 26.9062C86.879 26.7909 87.2201 26.5439 87.4492 26.2079C87.6834 25.8764 87.8011 25.4784 87.7835 25.0748C87.7733 24.6896 87.6425 24.3169 87.4088 24.0076C87.2445 23.7948 87.0313 23.623 86.7874 23.5062C86.543 23.3895 86.2741 23.3311 86.0023 23.3357ZM86.9535 26.2342C86.7965 26.3957 86.601 26.5153 86.3844 26.582C86.1683 26.6486 85.9381 26.6601 85.7158 26.6153C85.4935 26.5706 85.2865 26.471 85.1143 26.326C84.9414 26.181 84.8095 25.9953 84.7299 25.7863C84.5702 25.4353 84.5537 25.0375 84.6833 24.6747C84.8124 24.312 85.0784 24.0119 85.4264 23.8364C85.639 23.7298 85.8784 23.6856 86.116 23.709C86.3531 23.7323 86.5788 23.8222 86.7658 23.9681C86.9421 24.0964 87.0882 24.2605 87.1939 24.4493C87.2997 24.638 87.3634 24.847 87.3798 25.062C87.3963 25.277 87.3656 25.493 87.2894 25.6952C87.2138 25.8975 87.0944 26.0813 86.9398 26.2342H86.9535Z" fill="#244BC5"/>
<path d="M50.4549 25.7206C50.3075 25.4703 50.3343 25.4571 50.5486 25.3649C50.7501 25.253 50.9081 25.0783 50.9977 24.8685C51.0875 24.6586 51.1038 24.4254 51.0442 24.2055C50.9931 23.9834 50.8676 23.7847 50.6878 23.6413C50.508 23.498 50.2845 23.4182 50.053 23.415C49.8387 23.415 49.611 23.415 49.3967 23.415H48.9681C48.8208 23.415 48.8074 23.415 48.8074 23.5863V26.7483C48.8074 26.9723 48.8074 26.9723 49.0485 26.9723C49.2896 26.9723 49.2092 26.9723 49.2092 26.8273V25.9314C49.2092 25.4308 49.1422 25.5098 49.6646 25.5098C49.7139 25.5028 49.7642 25.5119 49.8078 25.5357C49.8513 25.5595 49.8857 25.5967 49.9057 25.6416L50.1602 26.0632L50.6156 26.8537C50.6156 26.8537 50.6156 26.9591 50.7495 26.9723C50.8607 26.986 50.9732 26.986 51.0844 26.9723C51.1009 26.9299 51.1009 26.8829 51.0844 26.8406L50.4549 25.7206ZM50.12 25.1146H49.3565C49.2494 25.1146 49.2226 25.1146 49.2226 24.9828V24.4295V23.8629C49.2226 23.7839 49.2226 23.7444 49.3432 23.7444H50.1066C50.2328 23.7493 50.3547 23.7906 50.4571 23.8633C50.5595 23.9359 50.6379 24.0366 50.6825 24.1528C50.7528 24.316 50.7572 24.4994 50.6951 24.6658C50.6329 24.8322 50.5087 24.9691 50.3477 25.0487C50.2766 25.0844 50.1994 25.1067 50.12 25.1146Z" fill="#244BC5"/>
<path d="M73.6669 25.3122C73.4174 25.1594 73.1399 25.0564 72.85 25.0092C72.6754 25.0092 72.5015 24.9433 72.3406 24.8906C72.2428 24.8672 72.1484 24.8318 72.0597 24.7852C71.9995 24.7485 71.9483 24.6996 71.9091 24.6417C71.8698 24.5839 71.8431 24.5185 71.8317 24.4498C71.8204 24.3812 71.8244 24.3109 71.8425 24.2438C71.8613 24.1766 71.8937 24.1142 71.9392 24.0605C72.0353 23.9443 72.1598 23.8537 72.3008 23.7971C72.5168 23.7507 72.7408 23.7507 72.9569 23.7971C73.0893 23.8027 73.2184 23.8363 73.3361 23.8953C73.4543 23.9545 73.5578 24.0378 73.6402 24.1396C73.7471 24.2714 73.7471 24.2714 73.8944 24.2187C73.9109 24.217 73.9262 24.2112 73.9398 24.2018C73.9529 24.1924 73.9637 24.1798 73.97 24.1651C73.9768 24.1504 73.9796 24.1343 73.9785 24.1183C73.9768 24.1023 73.9711 24.0869 73.9614 24.0738C73.8807 23.9072 73.75 23.7691 73.5862 23.6785C73.3082 23.5107 72.9887 23.4197 72.6624 23.415C72.456 23.4187 72.2519 23.4589 72.0597 23.5335C71.884 23.6016 71.7283 23.71 71.6043 23.8498C71.523 23.9492 71.465 24.0648 71.4338 24.1884C71.4025 24.3121 71.3991 24.441 71.423 24.5661C71.4474 24.6913 71.4986 24.8099 71.5742 24.9137C71.6492 25.0174 71.7465 25.1039 71.8585 25.1673L72.0461 25.2463C72.2382 25.3129 72.4355 25.3657 72.6356 25.4044C72.8187 25.4343 72.9984 25.4829 73.1712 25.5494C73.2627 25.5799 73.3486 25.6244 73.4259 25.6811C73.5106 25.746 73.5703 25.8378 73.5947 25.941C73.6192 26.0442 73.6067 26.1524 73.5595 26.2476C73.4788 26.4137 73.3344 26.5416 73.1581 26.6034C72.9136 26.7013 72.6442 26.7196 72.3883 26.6556C72.1331 26.5916 71.9051 26.4486 71.7379 26.2476C71.7232 26.2347 71.7044 26.2275 71.6845 26.2275C71.6646 26.2275 71.6458 26.2347 71.6311 26.2476L71.4571 26.3135C71.4571 26.3135 71.3764 26.3794 71.4571 26.4321C71.5151 26.5597 71.6021 26.6724 71.7112 26.7615C71.9341 26.9367 72.2001 27.0509 72.4827 27.0926C72.7647 27.1342 73.0529 27.1018 73.3184 26.9986C73.4867 26.9351 73.6408 26.8412 73.7738 26.7219C73.8847 26.635 73.9717 26.5228 74.0285 26.3951C74.0848 26.2675 74.1087 26.1281 74.0985 25.9893C74.0877 25.8504 74.0433 25.7162 73.9677 25.5982C73.8927 25.4802 73.7892 25.382 73.6669 25.3122Z" fill="#244BC5"/>
<path d="M59.3481 24.5354L58.9325 23.5341C58.9205 23.4912 58.8944 23.4536 58.858 23.4273C58.8216 23.401 58.7767 23.3876 58.7318 23.3892C58.3833 23.3892 58.4237 23.3892 58.29 23.6922V23.7976C57.9683 24.6935 57.6334 25.5895 57.2985 26.4326C57.257 26.536 57.2212 26.6416 57.1917 26.7489C57.1917 26.8543 57.1916 26.8806 57.2718 26.8938H57.4327C57.4657 26.895 57.4981 26.8853 57.5248 26.8662C57.5515 26.847 57.5709 26.8197 57.58 26.7884L57.7806 26.2746C57.7875 26.235 57.8091 26.1993 57.8415 26.1748C57.8739 26.1504 57.9143 26.1389 57.9552 26.1428C58.4237 26.1428 58.9058 26.1428 59.3879 26.1428C59.4356 26.139 59.4834 26.1532 59.5203 26.1826C59.5579 26.212 59.5823 26.2543 59.5891 26.3009L59.7097 26.6434L59.7898 26.8147C59.7961 26.8344 59.808 26.8516 59.8251 26.8635C59.8421 26.8754 59.8626 26.8815 59.8836 26.8806C59.9843 26.9075 60.0906 26.9075 60.1918 26.8806C60.2105 26.8205 60.2105 26.7563 60.1918 26.6962C59.8973 26.011 59.6289 25.2732 59.3481 24.5354ZM58.0086 25.8529C58.0086 25.8529 58.0086 25.8529 58.0086 25.7607C58.236 25.1678 58.4504 24.5881 58.6783 23.9689C58.7824 24.1779 58.8716 24.3936 58.9461 24.6145C59.0132 24.8121 59.0934 25.0229 59.1735 25.2205C59.2594 25.431 59.331 25.6466 59.3879 25.8661C58.9274 25.8776 58.4663 25.8555 58.0086 25.8002V25.8529Z" fill="#244BC5"/>
<path d="M45.2715 26.6294L44.2 23.5991C44.205 23.5597 44.205 23.5199 44.2 23.4805C44.1931 23.4602 44.1807 23.4422 44.1642 23.4283C44.1477 23.4144 44.1276 23.4051 44.1062 23.4014C43.9857 23.4014 43.8517 23.4014 43.7446 23.4014C43.6375 23.4014 43.6508 23.5596 43.6107 23.6517C43.249 24.6268 42.9008 25.5885 42.5391 26.5503C42.5391 26.6557 42.4721 26.7611 42.432 26.8797C42.5293 26.8982 42.6293 26.8982 42.7267 26.8797C42.7534 26.8766 42.7787 26.8664 42.8 26.8501C42.8213 26.8339 42.8376 26.8122 42.8472 26.7875V26.6689L42.9677 26.3527C43.0481 26.1287 43.0481 26.1287 43.2624 26.1287H44.6018C44.6343 26.1295 44.6658 26.1401 44.6921 26.1589C44.7184 26.1777 44.7383 26.2039 44.7492 26.2341C44.7492 26.3 44.7492 26.3791 44.8161 26.4449C44.8831 26.5108 44.9099 26.6821 44.9501 26.7875C44.9597 26.8122 44.9759 26.8339 44.9972 26.8501C45.0185 26.8664 45.0438 26.8766 45.0706 26.8797C45.3251 26.8797 45.4055 26.8797 45.2849 26.6162C45.2849 26.6689 45.2715 26.6425 45.2715 26.6294ZM44.4678 25.8257H43.249C43.1419 25.8257 43.1285 25.8257 43.1553 25.7071C43.1852 25.6085 43.2209 25.5117 43.2624 25.4173C43.4365 24.9166 43.624 24.4291 43.825 23.8889C43.9148 24.0273 43.9826 24.1784 44.0259 24.3369L44.4946 25.6544V25.7861C44.491 25.8021 44.4815 25.8163 44.4678 25.8257Z" fill="#244BC5"/>
<path d="M99.5168 26.6434C99.1951 25.7738 98.8738 24.9175 98.5657 24.0084L98.365 23.4682C98.3616 23.4507 98.3548 23.4341 98.3451 23.4192C98.3349 23.4044 98.3224 23.3916 98.307 23.3818C98.2922 23.372 98.2752 23.3652 98.2576 23.362C98.2399 23.3587 98.2217 23.3589 98.2041 23.3628H98.0967C98.0967 23.3628 98.0967 23.3628 98.0165 23.3628C97.9926 23.357 97.9676 23.3563 97.9437 23.3606C97.9193 23.365 97.8965 23.3743 97.8766 23.388C97.8562 23.4017 97.8391 23.4194 97.826 23.44C97.8135 23.4607 97.8056 23.4838 97.8022 23.5077C97.8022 23.5077 97.8022 23.5077 97.8022 23.5867L96.664 26.6698C96.5702 26.9069 96.5832 26.9201 96.8243 26.9201C97.0654 26.9201 96.9988 26.9201 97.0256 26.7883C97.0523 26.6566 97.1461 26.4853 97.1995 26.3272C97.2063 26.2806 97.2308 26.2383 97.2683 26.2089C97.3053 26.1795 97.353 26.1653 97.4002 26.1691C97.8647 26.1691 98.311 26.1691 98.7397 26.1691C98.7891 26.1638 98.8386 26.1752 98.8801 26.2016C98.9216 26.228 98.9523 26.2677 98.9676 26.3141C98.9676 26.4853 99.0882 26.6434 99.1416 26.8015C99.1507 26.8363 99.1718 26.867 99.2007 26.8886C99.2303 26.9101 99.2661 26.9212 99.3025 26.9201H99.4094C99.5436 26.9201 99.5703 26.9201 99.5299 26.762C99.4901 26.6039 99.5299 26.6961 99.5168 26.6434ZM98.7533 25.8397H97.4139C97.4139 25.8397 97.4139 25.7739 97.4139 25.7475L98.0569 24.0084C98.311 24.5805 98.5344 25.1654 98.7266 25.7607C98.7431 25.7839 98.7522 25.8113 98.7533 25.8397Z" fill="#244BC5"/>
<path d="M106.508 23.7836H108.129C108.156 23.6933 108.156 23.5972 108.129 23.5069H107.968C107.397 23.5069 106.821 23.5069 106.24 23.5069C106.205 23.5005 106.169 23.5005 106.133 23.5069C106.053 23.5069 106.026 23.5069 106.013 23.6124V26.9061C106.013 27.0247 106.013 27.0379 106.173 27.051H108.116C108.137 27.051 108.157 27.0427 108.172 27.0279C108.187 27.0131 108.196 26.993 108.196 26.972V26.7876C108.198 26.7766 108.198 26.7653 108.195 26.7546C108.192 26.7438 108.186 26.734 108.178 26.7261C108.17 26.7182 108.16 26.7124 108.149 26.7093C108.138 26.7062 108.127 26.706 108.116 26.7085H106.522C106.401 26.7085 106.387 26.7085 106.387 26.5636V25.5491C106.387 25.4042 106.387 25.391 106.562 25.3778H107.7C107.888 25.3778 107.915 25.3778 107.915 25.167C107.915 24.9562 107.915 24.9957 107.741 24.9957H107.553C107.232 24.9957 106.897 24.9957 106.575 24.9957C106.254 24.9957 106.387 24.9957 106.387 24.8245V24.0471C106.352 24.0314 106.324 24.0024 106.311 23.9666C106.297 23.9308 106.298 23.891 106.314 23.8561C106.33 23.8211 106.36 23.7938 106.396 23.7803C106.432 23.7667 106.473 23.7679 106.508 23.7836Z" fill="#244BC5"/>
<path d="M54.6071 23.8104C54.8342 23.7114 55.0868 23.6838 55.3304 23.7313C55.6106 23.7878 55.8671 23.9254 56.067 24.1265C56.1876 24.2452 56.2144 24.2452 56.3617 24.1265C56.4555 24.1265 56.4689 24.0212 56.3617 23.9553C56.1661 23.7128 55.9064 23.5281 55.6111 23.4212C55.3157 23.3143 54.9962 23.2893 54.6875 23.3492C54.4643 23.3865 54.2515 23.469 54.0624 23.5915C53.8733 23.7139 53.7121 23.8737 53.5892 24.0607C53.424 24.2837 53.3117 24.5403 53.2607 24.8116C53.2097 25.083 53.2213 25.3621 53.2945 25.6285C53.3564 25.9016 53.4834 26.1563 53.6651 26.3716C53.8467 26.587 54.0778 26.7568 54.3392 26.867C54.5856 26.9815 54.8578 27.0314 55.1295 27.0119C55.5584 26.9813 55.9601 26.7932 56.2546 26.4849C56.4555 26.2741 56.4555 26.2609 56.2546 26.1292C56.2314 26.1121 56.2032 26.1028 56.1742 26.1028C56.1452 26.1028 56.117 26.1121 56.0939 26.1292C56.0548 26.1609 56.019 26.1962 55.9867 26.2346C55.7547 26.4465 55.4538 26.5708 55.1375 26.5852C54.8212 26.5997 54.5099 26.5035 54.2589 26.3136C54.0699 26.1852 53.9176 26.0111 53.8168 25.8081C53.7159 25.605 53.6698 25.3798 53.6829 25.1542C53.6813 24.8647 53.7687 24.5814 53.9336 24.3416C54.0986 24.1018 54.3333 23.9166 54.6071 23.8104Z" fill="#244BC5"/>
<path d="M83.1757 26.1552L83.0819 26.2474C82.9551 26.3751 82.8027 26.476 82.6344 26.5439C82.4662 26.6119 82.2859 26.6454 82.104 26.6426C81.8999 26.6371 81.6992 26.5855 81.5184 26.4919C81.337 26.3982 81.1801 26.265 81.0596 26.1025C80.8692 25.8438 80.7662 25.5326 80.7662 25.2131C80.7662 24.8937 80.8692 24.5824 81.0596 24.3238C81.237 24.0485 81.5116 23.8477 81.8305 23.7601C82.15 23.6725 82.4906 23.7044 82.7874 23.8495C82.942 23.9266 83.0824 24.0291 83.2024 24.1525C83.2831 24.2448 83.3098 24.2316 83.4167 24.1525H83.5373C83.5373 24.1525 83.6043 24.0735 83.5373 24.0208C83.3786 23.8192 83.1757 23.6553 82.9443 23.5412C82.7123 23.4272 82.4571 23.366 82.1978 23.362C81.9437 23.3532 81.6901 23.4021 81.4582 23.5049C81.2256 23.6077 81.0209 23.7617 80.8584 23.9549C80.6889 24.1481 80.5604 24.3727 80.4808 24.6155C80.4013 24.8583 80.3717 25.1144 80.3939 25.3686C80.4166 25.6228 80.4905 25.87 80.6116 26.0956C80.7327 26.3212 80.8987 26.5207 81.1 26.6822C81.4201 26.9392 81.8254 27.0705 82.2382 27.0511C82.6043 27.0369 82.9568 26.9076 83.2428 26.6822C83.3769 26.5811 83.4906 26.4559 83.5776 26.3132C83.502 26.2505 83.4162 26.2014 83.3229 26.1684C83.3155 26.1566 83.3053 26.1466 83.2928 26.1394C83.2808 26.1321 83.2666 26.1276 83.253 26.1264C83.2388 26.1251 83.224 26.127 83.2109 26.132C83.1973 26.137 83.1853 26.1449 83.1757 26.1552Z" fill="#244BC5"/>
<path d="M96.2216 23.5862H96.1147C96.0891 23.5866 96.0641 23.5942 96.0425 23.6082C96.0215 23.6223 96.0044 23.6421 95.9942 23.6652C95.9868 23.7132 95.9868 23.7621 95.9942 23.8101C95.7531 24.4425 95.5252 25.0618 95.2977 25.6942C95.1903 25.984 95.0698 26.2739 94.9629 26.5901C94.8935 26.5271 94.8469 26.444 94.8287 26.353C94.5746 25.6679 94.3199 25.0354 94.0788 24.3108C93.9987 24.1131 93.9316 23.9024 93.8508 23.7047C93.848 23.6784 93.8378 23.6535 93.8213 23.6326C93.8048 23.6117 93.7826 23.5956 93.7576 23.5862H93.4893V23.6652" fill="#244BC5"/>
<path d="M96.2216 23.5862H96.1147C96.0891 23.5866 96.0641 23.5942 96.0425 23.6082C96.0215 23.6223 96.0044 23.6421 95.9942 23.6652C95.9868 23.7132 95.9868 23.7621 95.9942 23.8101C95.7531 24.4425 95.5252 25.0618 95.2977 25.6942C95.1903 25.984 95.0698 26.2739 94.9629 26.5901C94.8935 26.5271 94.8469 26.444 94.8287 26.353C94.5746 25.6679 94.3199 25.0354 94.0788 24.3108C93.9987 24.1131 93.9316 23.9024 93.8508 23.7047C93.848 23.6784 93.8378 23.6535 93.8213 23.6326C93.8048 23.6117 93.7826 23.5956 93.7576 23.5862H93.4893V23.6652" stroke="#244BC5" stroke-width="0.3"/>
<path d="M48.2182 23.4937C48.2149 23.4681 48.2022 23.4446 48.1824 23.4275C48.1627 23.4105 48.1373 23.4013 48.111 23.4014H46.2091C46.1153 23.4014 46.102 23.4014 46.0886 23.5332V26.6557C46.0819 26.7258 46.0819 26.7964 46.0886 26.8665C46.0799 26.8779 46.0752 26.8918 46.0752 26.9061C46.0752 26.9203 46.0799 26.9342 46.0886 26.9456C46.1713 26.9718 46.2603 26.9718 46.343 26.9456C46.362 26.9424 46.3791 26.9327 46.3914 26.9182C46.4037 26.9037 46.4103 26.8854 46.41 26.8665V25.549C46.4034 25.4833 46.4034 25.4171 46.41 25.3514C46.41 25.2723 46.41 25.246 46.5306 25.2328H47.6691C47.8833 25.2328 47.9101 25.2328 47.8968 24.9956C47.8833 24.7585 47.8968 24.8507 47.736 24.8507C47.5753 24.8507 47.1735 24.8507 46.8922 24.8507H46.5439C46.4368 24.8507 46.41 24.8507 46.41 24.7058C46.41 24.5609 46.41 24.2974 46.41 24.0865C46.4033 24.0253 46.4033 23.9634 46.41 23.9021C46.41 23.8231 46.41 23.7967 46.5172 23.7835H47.8566C48.1378 23.7835 48.111 23.7835 48.111 23.52L48.2182 23.4937Z" fill="#244BC5"/>
<path d="M111.344 23.4017C111.309 23.3957 111.273 23.4016 111.241 23.4183C111.21 23.435 111.185 23.4616 111.17 23.4939C111.131 23.5322 111.1 23.5768 111.076 23.6256L110.38 24.7587C110.38 24.7587 110.38 24.8641 110.246 24.8773L109.791 24.1395L109.415 23.5466C109.415 23.5466 109.348 23.4544 109.295 23.4544C109.241 23.4544 109.068 23.4544 108.96 23.4544C108.853 23.4544 109.04 23.6256 109.081 23.7178V23.7838L110.005 25.2462C110.031 25.3233 110.031 25.4063 110.005 25.4834V26.8009C110.005 26.8931 110.005 26.9194 110.139 26.9326C110.273 26.9458 110.406 26.9326 110.406 26.6691V25.5228C110.404 25.3939 110.437 25.2665 110.5 25.154L111.505 23.7178C111.505 23.6388 111.652 23.5598 111.612 23.4939C111.572 23.428 111.438 23.4148 111.344 23.4017Z" fill="#244BC5"/>
<path d="M64.9606 23.389C64.1834 23.389 63.4068 23.389 62.6302 23.389C62.3886 23.389 62.3221 23.4813 62.3886 23.7184C62.4557 23.9556 62.3886 23.7184 62.4557 23.7843H63.487C63.5541 23.7843 63.5944 23.7843 63.5944 23.8897V26.6433C63.587 26.7134 63.587 26.784 63.5944 26.8541V26.92C63.641 26.9395 63.6911 26.9497 63.7417 26.9497C63.7923 26.9497 63.8423 26.9395 63.8889 26.92V24.0214C63.8889 23.8634 63.8889 23.837 64.0765 23.837H64.9737C65.0942 23.837 65.1209 23.837 65.1209 23.7053C65.1209 23.5735 65.2017 23.389 64.9606 23.389Z" fill="#244BC5"/>
<path d="M105.089 26.577H103.87C103.549 26.577 103.562 26.577 103.562 26.274V23.639C103.562 23.3886 103.562 23.3886 103.294 23.4018C103.026 23.415 103.187 23.4018 103.174 23.5072V26.8537C103.174 26.8537 103.174 26.9327 103.28 26.9459H105.009C105.196 26.9459 105.21 26.9459 105.21 26.7351C105.21 26.6034 105.183 26.5902 105.089 26.577Z" fill="#244BC5"/>
<path d="M102.303 26.5903H101.057C100.736 26.5903 100.749 26.5903 100.749 26.3005V23.5469C100.749 23.5469 100.749 23.4283 100.749 23.4151C100.7 23.3952 100.648 23.3849 100.595 23.3849C100.542 23.3849 100.49 23.3952 100.441 23.4151V26.788C100.438 26.8006 100.439 26.8136 100.443 26.8259C100.447 26.8382 100.454 26.8493 100.463 26.8584C100.472 26.8675 100.484 26.8742 100.496 26.878C100.508 26.8818 100.522 26.8826 100.534 26.8802H102.396C102.42 26.8377 102.432 26.7902 102.432 26.7419C102.432 26.6935 102.42 26.646 102.396 26.6035C102.396 26.6035 102.316 26.5903 102.303 26.5903Z" fill="#244BC5"/>
<path d="M78.1942 26.5903H76.9485C76.6268 26.5903 76.6404 26.5903 76.6404 26.3005V23.5469C76.6404 23.5469 76.6404 23.4283 76.6404 23.4151C76.5915 23.3952 76.5392 23.3849 76.4863 23.3849C76.4335 23.3849 76.3812 23.3952 76.3323 23.4151V26.788C76.33 26.8006 76.3306 26.8136 76.3345 26.8259C76.3385 26.8382 76.3453 26.8493 76.3544 26.8584C76.3635 26.8675 76.3749 26.8742 76.3874 26.878C76.3999 26.8818 76.413 26.8826 76.4261 26.8802H78.288C78.3113 26.8377 78.3238 26.7902 78.3238 26.7419C78.3238 26.6935 78.3113 26.646 78.288 26.6035C78.288 26.6035 78.2073 26.5903 78.1942 26.5903Z" fill="#244BC5"/>
<path d="M75.1127 23.389C75.0058 23.389 74.9922 23.389 74.9791 23.5076V26.6433C74.9723 26.7091 74.9723 26.7752 74.9791 26.8409V26.9068C75.0257 26.9264 75.0758 26.9365 75.1264 26.9365C75.177 26.9365 75.227 26.9264 75.2736 26.9068C75.2736 26.9068 75.2736 26.9068 75.2736 26.8409C75.2799 26.8017 75.2799 26.7616 75.2736 26.7224V23.5998C75.3271 23.4022 75.314 23.389 75.1127 23.389Z" fill="#244BC5"/>
<path d="M79.5331 23.52C79.5331 23.4278 79.5331 23.4014 79.3989 23.4014C79.2653 23.4014 79.1579 23.4014 79.1579 23.6254V26.7084C79.1505 26.7564 79.1505 26.8053 79.1579 26.8533V26.9192C79.2045 26.9388 79.2545 26.9489 79.3051 26.9489C79.3563 26.9489 79.4063 26.9388 79.453 26.9192C79.453 26.9192 79.453 26.9192 79.453 26.8533C79.4592 26.7876 79.4592 26.7214 79.453 26.6557V23.52H79.5331Z" fill="#244BC5"/>
<path d="M52.2363 23.389C52.1559 23.389 52.1292 23.389 52.1292 23.4944V26.7224C52.1292 26.92 52.1292 26.9332 52.3301 26.9332C52.362 26.9332 52.3927 26.9207 52.4153 26.8984C52.4379 26.8762 52.4506 26.846 52.4506 26.8146V23.5998C52.5042 23.4022 52.4774 23.389 52.2363 23.389Z" fill="#244BC5"/>
<path d="M90.8207 23.3961C90.7945 23.3993 90.7706 23.4119 90.7536 23.4313C90.7359 23.4507 90.7268 23.4757 90.7268 23.5015C90.72 23.5716 90.72 23.6422 90.7268 23.7123V26.1629L90.5529 26.0312C90.0571 25.3197 89.5614 24.5687 89.0793 23.8177L88.8518 23.4883C88.7199 23.4071 88.5636 23.3744 88.4095 23.3961C88.397 23.4879 88.397 23.581 88.4095 23.6728V26.8348C88.4095 26.9139 88.4095 26.9403 88.5301 26.9403C88.6506 26.9403 88.7848 26.9403 88.7848 26.7031V24.2525L89.3743 25.1221L90.4858 26.8348C90.5102 26.8763 90.5455 26.9104 90.5876 26.9336C90.6302 26.9568 90.6785 26.9682 90.7268 26.9666C91.0884 26.9534 91.0884 26.9534 91.0884 26.7031V23.6332C91.0884 23.3961 91.0884 23.3961 90.8207 23.3961Z" fill="#244BC5"/>
</g>
<defs>
<clipPath id="clip0_29_118">
<rect width="112" height="28" fill="white"/>
</clipPath>
</defs>
</svg>
